<svg viewBox="0 0 38 32" fill="none" xmlns="http://www.w3.org/2000/svg">
<path d="M22.0549 31.4829C30.7146 31.4829 37.7346 24.542 37.7346 15.9798C37.7346 7.41772 30.7146 0.476746 22.0549 0.476746C13.3952 0.476746 6.37518 7.41772 6.37518 15.9798C6.37518 24.542 13.3952 31.4829 22.0549 31.4829Z" fill="#9D9FB5"/>
<path d="M14.989 31.9167C14.9771 31.9167 14.9652 31.9167 14.9533 31.9167C14.2963 31.8697 13.6354 31.7794 12.9923 31.6538C12.7323 31.6028 12.5636 31.3516 12.6152 31.0945C12.6668 30.8374 12.9209 30.6706 13.1809 30.7216C13.7862 30.8413 14.4075 30.9238 15.0247 30.9689C15.2887 30.9885 15.4872 31.2162 15.4693 31.4772C15.4515 31.7264 15.2391 31.9167 14.991 31.9167H14.989ZM18.8177 31.7382C18.5874 31.7382 18.385 31.5753 18.3453 31.3437C18.3016 31.0847 18.4763 30.8394 18.7383 30.7962C19.3476 30.6942 19.9569 30.5509 20.5504 30.3762C20.8044 30.3017 21.0724 30.443 21.1498 30.6942C21.2272 30.9453 21.0823 31.2103 20.8282 31.2868C20.1991 31.4752 19.55 31.6244 18.901 31.7342C18.8732 31.7382 18.8474 31.7421 18.8196 31.7421L18.8177 31.7382ZM9.44554 30.4704C9.37608 30.4704 9.3066 30.4547 9.23912 30.4253C8.64369 30.1466 8.06215 29.8287 7.50641 29.4794C7.28213 29.3381 7.21664 29.0457 7.35756 28.824C7.50046 28.6022 7.79618 28.5375 8.02046 28.6768C8.54246 29.0045 9.09226 29.3048 9.64998 29.5677C9.89014 29.6796 9.99134 29.9641 9.87821 30.2016C9.79485 30.3723 9.62417 30.4724 9.44356 30.4724L9.44554 30.4704ZM24.1944 29.7738C24.0317 29.7738 23.8709 29.6914 23.7816 29.5422C23.6446 29.3165 23.72 29.0261 23.9483 28.8907C24.4782 28.5767 24.9963 28.2274 25.4845 27.8526C25.6949 27.6917 25.9966 27.7289 26.1594 27.937C26.3221 28.145 26.2844 28.4433 26.076 28.6042C25.556 29.0026 25.0082 29.3754 24.4425 29.709C24.3651 29.7542 24.2798 29.7757 24.1964 29.7757L24.1944 29.7738ZM4.80315 27.1461C4.67612 27.1461 4.5491 27.097 4.45581 26.9989C4.0013 26.5279 3.57258 26.0236 3.18158 25.5016C3.0228 25.2916 3.06845 24.9933 3.28082 24.8363C3.49319 24.6794 3.79488 24.7245 3.95366 24.9345C4.32283 25.4251 4.72574 25.898 5.15247 26.3415C5.33507 26.5319 5.32712 26.8321 5.13658 27.0127C5.04329 27.101 4.92422 27.1442 4.80514 27.1442L4.80315 27.1461ZM28.4974 26.0295C28.3942 26.0295 28.289 25.9961 28.2017 25.9274C27.9933 25.7646 27.9575 25.4663 28.1203 25.2602C28.5034 24.7794 28.8587 24.2692 29.1782 23.7452C29.3151 23.5215 29.6108 23.4489 29.8371 23.5843C30.0634 23.7197 30.1368 24.0121 29.9999 24.2358C29.6605 24.7932 29.2814 25.3348 28.8745 25.845C28.7793 25.9647 28.6383 26.0256 28.4954 26.0256L28.4974 26.0295ZM1.67514 22.399C1.48659 22.399 1.30796 22.2891 1.23055 22.1066C0.978485 21.5042 0.76016 20.8821 0.585499 20.2561C0.514047 20.0029 0.664879 19.7419 0.920915 19.6713C1.17695 19.6006 1.44095 19.7498 1.5124 20.0029C1.67714 20.5916 1.88155 21.1764 2.11774 21.7416C2.21896 21.983 2.10386 22.2617 1.85775 22.3617C1.7982 22.3873 1.73468 22.399 1.67315 22.399H1.67514ZM31.157 21.0057C31.1094 21.0057 31.0637 20.9998 31.0161 20.9841C30.7621 20.9076 30.6191 20.6407 30.6985 20.3915C30.8791 19.8086 31.026 19.2062 31.1332 18.6018C31.1788 18.3427 31.4309 18.17 31.6889 18.2152C31.9509 18.2603 32.1256 18.5076 32.0799 18.7646C31.9648 19.4063 31.81 20.0461 31.6175 20.6682C31.554 20.8723 31.3634 21.0037 31.159 21.0037L31.157 21.0057ZM0.486261 16.8532C0.226255 16.8532 0.0118902 16.6491 0.00593592 16.3901C0.00196636 16.2547 0 16.1173 0 15.98C0 15.4638 0.0257788 14.9458 0.0753982 14.4355C0.1012 14.1745 0.333422 13.9822 0.599382 14.0077C0.863357 14.0332 1.05788 14.2648 1.03207 14.5258C0.986424 15.0046 0.962612 15.4952 0.962612 15.98C0.962612 16.1095 0.962616 16.237 0.966585 16.3666C0.972539 16.6295 0.764117 16.8473 0.498157 16.8532C0.494187 16.8532 0.49023 16.8532 0.486261 16.8532ZM31.8041 15.3736C31.554 15.3736 31.3416 15.1813 31.3257 14.932C31.284 14.3217 31.2026 13.7075 31.0855 13.107C31.0359 12.8499 31.2047 12.6007 31.4667 12.5497C31.7247 12.5006 31.9787 12.6674 32.0303 12.9264C32.1553 13.5642 32.2407 14.2177 32.2863 14.8673C32.3042 15.1283 32.1057 15.3559 31.8398 15.3736C31.8279 15.3736 31.818 15.3736 31.806 15.3736H31.8041ZM1.38537 11.2545C1.33178 11.2545 1.27818 11.2466 1.22459 11.227C0.97451 11.1387 0.84352 10.8679 0.932835 10.6206C1.15315 10.0064 1.41514 9.40194 1.71088 8.8191C1.82996 8.58557 2.11776 8.48941 2.35593 8.60716C2.59212 8.7249 2.68936 9.01141 2.57028 9.24494C2.29241 9.79049 2.04628 10.3616 1.83788 10.9385C1.76841 11.1328 1.58186 11.2545 1.38537 11.2545ZM30.3691 9.88666C30.1885 9.88666 30.0157 9.78461 29.9344 9.61388C29.6724 9.06048 29.3727 8.51689 29.0432 7.99881C28.9023 7.77706 28.9698 7.48269 29.194 7.34336C29.4183 7.20403 29.7161 7.27075 29.857 7.49251C30.2083 8.04394 30.5259 8.62286 30.8057 9.20962C30.9188 9.44707 30.8137 9.72966 30.5735 9.84152C30.508 9.87292 30.4385 9.88666 30.3711 9.88666H30.3691ZM4.26528 6.35234C4.15414 6.35234 4.04297 6.31506 3.95167 6.23852C3.75121 6.06779 3.72739 5.76754 3.90007 5.56934C4.32878 5.07481 4.79323 4.60383 5.2795 4.16621C5.47599 3.9896 5.77965 4.00333 5.95828 4.19761C6.13691 4.39189 6.12303 4.69214 5.92654 4.86876C5.47004 5.28086 5.03338 5.72437 4.62849 6.18946C4.53322 6.29936 4.39826 6.35431 4.2633 6.35431L4.26528 6.35234ZM8.73103 2.79841C8.56034 2.79841 8.39362 2.70813 8.30827 2.54918C8.18323 2.31761 8.26857 2.02914 8.50278 1.90551C9.08233 1.59741 9.68569 1.32071 10.299 1.08522C10.5471 0.989058 10.825 1.11073 10.9202 1.35603C11.0175 1.60133 10.8944 1.87607 10.6463 1.97027C10.0707 2.19202 9.50309 2.45106 8.95727 2.7415C8.88384 2.78074 8.80645 2.79841 8.72904 2.79841H8.73103ZM21.7472 1.96242C21.6896 1.96242 21.6321 1.9526 21.5765 1.93102C20.9969 1.71319 20.3995 1.52872 19.8001 1.3835C19.5421 1.3207 19.3853 1.06363 19.4488 0.808515C19.5123 0.553401 19.7723 0.398372 20.0303 0.461169C20.6694 0.6162 21.3046 0.812442 21.9199 1.04401C22.168 1.1382 22.293 1.41294 22.1977 1.65628C22.1243 1.84663 21.9417 1.96242 21.7491 1.96242H21.7472ZM14.1892 1.07148C13.951 1.07148 13.7426 0.894861 13.7128 0.655446C13.6791 0.394445 13.8656 0.15699 14.1296 0.125592C14.7806 0.0451325 15.4435 0.00196242 16.1045 0C16.3684 0 16.5848 0.211942 16.5848 0.472943C16.5848 0.735907 16.3704 0.947847 16.1064 0.949809C15.4852 0.951771 14.86 0.991021 14.2487 1.06756C14.2288 1.06952 14.209 1.07148 14.1892 1.07148Z" fill="#F8F8F8"/>
<path d="M15.527 21.6488C15.0387 21.5605 14.7052 21.1092 14.7727 20.6225L16.5412 7.80398C16.6563 6.96996 17.4522 6.39693 18.2897 6.54804C19.1273 6.69718 19.6712 7.50962 19.4826 8.32992L16.5968 20.9483C16.4876 21.4271 16.0152 21.7352 15.527 21.6488ZM14.6576 26.4411C14.0066 26.3253 13.5759 25.7091 13.693 25.0654L13.7069 24.9948C13.824 24.3511 14.4472 23.9252 15.0982 24.041C15.7492 24.1568 16.1799 24.773 16.0628 25.4167L16.049 25.4873C15.9319 26.131 15.3086 26.5568 14.6576 26.4411Z" fill="#464962"/>
</svg>
