<svg viewBox="0 0 48 42" fill="none" xmlns="http://www.w3.org/2000/svg">
<path d="M46.7985 21.6048C47.3414 10.7463 38.8787 1.50867 27.8965 0.971902C16.9143 0.435135 7.57139 8.80253 7.02851 19.661C6.48563 30.5195 14.9484 39.7571 25.9305 40.2939C36.9127 40.8307 46.2556 32.4633 46.7985 21.6048Z" fill="#3653F2"/>
<path d="M20.904 40.7793C20.644 40.7793 20.4316 40.5752 20.4237 40.3162C20.4158 40.0532 20.6261 39.8354 20.8921 39.8295C21.5153 39.8138 22.1445 39.7667 22.7618 39.6921C23.0257 39.6607 23.2659 39.8452 23.2977 40.1062C23.3294 40.3672 23.1428 40.6046 22.8789 40.636C22.2318 40.7145 21.5729 40.7636 20.9179 40.7793C20.9139 40.7793 20.91 40.7793 20.906 40.7793H20.904ZM17.0774 40.5183C17.0516 40.5183 17.0238 40.5163 16.998 40.5124C16.3529 40.4064 15.7079 40.2671 15.0747 40.1003C14.8187 40.0316 14.6659 39.7726 14.7353 39.5194C14.8048 39.2663 15.0668 39.1152 15.3228 39.1838C15.9242 39.3428 16.5415 39.4743 17.1548 39.5763C17.4168 39.6195 17.5934 39.8648 17.5497 40.1238C17.51 40.3554 17.3076 40.5202 17.0754 40.5202L17.0774 40.5183ZM26.5646 39.8157C26.3621 39.8157 26.1736 39.6882 26.1081 39.488C26.0247 39.2388 26.1637 38.9699 26.4157 38.8895C27.0072 38.6991 27.5967 38.4754 28.1663 38.2281C28.4104 38.1222 28.6923 38.2321 28.7994 38.4715C28.9066 38.7109 28.7955 38.9915 28.5533 39.0975C27.9539 39.3565 27.3367 39.5901 26.7154 39.7922C26.6658 39.8079 26.6162 39.8157 26.5666 39.8157H26.5646ZM11.6073 38.7835C11.5359 38.7835 11.4644 38.7678 11.3969 38.7345C10.8114 38.4499 10.2319 38.1339 9.67415 37.7944C9.44788 37.6571 9.37841 37.3647 9.51734 37.141C9.65628 36.9173 9.95201 36.8486 10.1783 36.9859C10.7082 37.3097 11.26 37.6119 11.8197 37.8828C12.0579 37.9985 12.1571 38.2831 12.04 38.5186C11.9566 38.6873 11.7859 38.7835 11.6073 38.7835ZM31.7091 37.2862C31.5563 37.2862 31.4074 37.2155 31.3142 37.0821C31.1633 36.8662 31.2169 36.5699 31.4352 36.4208C31.9473 36.0695 32.4475 35.6888 32.9218 35.2924C33.1243 35.1236 33.4279 35.1472 33.5986 35.3473C33.7693 35.5475 33.7455 35.8477 33.5431 36.0165C33.0449 36.4345 32.5189 36.8329 31.983 37.2018C31.8997 37.2587 31.8044 37.2862 31.7091 37.2862ZM6.86966 35.571C6.75255 35.571 6.63545 35.5298 6.54415 35.4454C6.06383 35.0078 5.59939 34.5408 5.16473 34.06C4.98808 33.8637 5.00396 33.5635 5.20244 33.3888C5.40092 33.2142 5.7046 33.2299 5.88124 33.4261C6.29606 33.8853 6.73867 34.3288 7.19715 34.7468C7.39166 34.9254 7.40356 35.2257 7.22493 35.418C7.12966 35.52 7.00065 35.571 6.87164 35.571H6.86966ZM35.9089 33.4124C35.8037 33.4124 35.6965 33.379 35.6092 33.3084C35.4028 33.1435 35.3691 32.8452 35.5358 32.6411C35.9268 32.1604 36.296 31.656 36.6373 31.1419C36.7822 30.9221 37.0799 30.8612 37.3022 31.0045C37.5245 31.1478 37.5861 31.4421 37.4412 31.6619C37.0839 32.2016 36.6949 32.7314 36.286 33.2358C36.1908 33.3535 36.0518 33.4143 35.9109 33.4143L35.9089 33.4124ZM3.25141 31.1595C3.08668 31.1595 2.92789 31.0771 2.83857 30.928C2.50513 30.3726 2.19352 29.7956 1.91565 29.2108C1.80252 28.9734 1.90573 28.6908 2.14589 28.5789C2.38605 28.4671 2.67185 28.5691 2.78498 28.8066C3.05094 29.3639 3.34667 29.9134 3.66424 30.4432C3.7992 30.6689 3.72577 30.9594 3.49752 31.0948C3.42012 31.1399 3.33477 31.1615 3.25141 31.1615V31.1595ZM38.8206 28.5162C38.761 28.5162 38.6995 28.5044 38.64 28.4808C38.3939 28.3827 38.2768 28.104 38.376 27.8627C38.6102 27.2936 38.8186 26.7048 38.9972 26.1142C39.0727 25.863 39.3406 25.7197 39.5947 25.7943C39.8487 25.8689 39.9936 26.1338 39.9182 26.385C39.7316 27.0051 39.5133 27.6213 39.2672 28.2198C39.1917 28.4043 39.0111 28.5162 38.8226 28.5162H38.8206ZM1.05822 25.9101C0.843868 25.9101 0.64738 25.7668 0.591806 25.5509C0.433024 24.9249 0.304013 24.2832 0.206759 23.6435C0.167063 23.3844 0.347684 23.1411 0.609674 23.1038C0.87365 23.0646 1.11579 23.2431 1.15549 23.5022C1.24877 24.1125 1.37182 24.7228 1.52267 25.3194C1.58816 25.5745 1.43137 25.8316 1.17334 25.8963C1.13365 25.9061 1.09396 25.9101 1.05625 25.9101H1.05822ZM40.1901 22.9998C40.1742 22.9998 40.1603 22.9998 40.1444 22.9978C39.8805 22.9723 39.6859 22.7408 39.7118 22.4798C39.7713 21.8694 39.8011 21.2454 39.8011 20.6292C39.8011 20.3662 40.0154 20.1543 40.2814 20.1543C40.5473 20.1543 40.7617 20.3662 40.7617 20.6292C40.7617 21.2768 40.7299 21.9303 40.6684 22.572C40.6446 22.8173 40.4362 23.0018 40.1901 23.0018V22.9998ZM0.480659 20.2603C0.480659 20.2603 0.46677 20.2603 0.460816 20.2603C0.194856 20.2485 -0.00957739 20.0267 0.000346496 19.7657C0.0281334 19.1201 0.0876675 18.4686 0.176982 17.8288C0.212708 17.5698 0.456844 17.3873 0.718835 17.4246C0.980825 17.4599 1.16541 17.7013 1.1277 17.9603C1.04235 18.5687 0.984787 19.1907 0.958985 19.8069C0.947076 20.0621 0.734709 20.2622 0.478672 20.2622L0.480659 20.2603ZM40.1683 18.9965C39.9261 18.9965 39.7177 18.8159 39.6919 18.5726C39.6264 17.9603 39.5292 17.3441 39.4041 16.7417C39.3505 16.4846 39.5172 16.2334 39.7772 16.1804C40.0373 16.1274 40.2913 16.2922 40.3449 16.5493C40.4759 17.1812 40.5771 17.8269 40.6466 18.4705C40.6744 18.7315 40.4838 18.9651 40.2199 18.9925C40.202 18.9925 40.1861 18.9945 40.1683 18.9945V18.9965ZM1.54648 14.6791C1.49488 14.6791 1.44129 14.6713 1.38969 14.6536C1.13961 14.5673 1.00464 14.2984 1.09197 14.0492C1.30434 13.4389 1.55046 12.8305 1.82436 12.2438C1.9355 12.0044 2.2213 11.9004 2.46146 12.0103C2.70361 12.1202 2.8088 12.4008 2.69765 12.6402C2.43765 13.1995 2.20344 13.7784 2.00099 14.3612C1.93153 14.5575 1.74695 14.6811 1.54648 14.6811V14.6791ZM38.7412 13.4958C38.5527 13.4958 38.376 13.3859 38.2986 13.2054C38.0584 12.6382 37.7865 12.075 37.4908 11.5334C37.3657 11.3018 37.4531 11.0134 37.6853 10.8897C37.9195 10.7661 38.2093 10.8524 38.3363 11.082C38.6459 11.6511 38.9317 12.2418 39.1838 12.8364C39.287 13.0778 39.1719 13.3565 38.9258 13.4585C38.8643 13.484 38.8027 13.4958 38.7392 13.4958H38.7412ZM4.18822 9.63574C4.09097 9.63574 3.99372 9.6063 3.90837 9.54743C3.69203 9.39436 3.6444 9.09804 3.79723 8.88413C4.1783 8.36017 4.58915 7.84798 5.01984 7.3613C5.1945 7.16309 5.49817 7.14347 5.69863 7.31616C5.8991 7.48885 5.91895 7.7891 5.74429 7.98731C5.33344 8.45044 4.94244 8.93908 4.57923 9.4395C4.48594 9.56902 4.33708 9.6377 4.18822 9.6377V9.63574ZM35.7759 8.63098C35.637 8.63098 35.5001 8.57211 35.4048 8.45633C35.0098 7.98142 34.5871 7.51829 34.1484 7.08067C33.9619 6.89424 33.9619 6.59399 34.1484 6.40952C34.337 6.22506 34.6406 6.22506 34.8272 6.40952C35.2877 6.86873 35.7323 7.35345 36.1451 7.8519C36.3138 8.05403 36.284 8.35428 36.0776 8.52109C35.9883 8.59369 35.8811 8.62902 35.774 8.62902L35.7759 8.63098ZM8.17366 5.5441C8.03075 5.5441 7.88784 5.48131 7.79456 5.35964C7.6318 5.15162 7.66951 4.85333 7.8799 4.69241C8.39594 4.296 8.9378 3.91922 9.48956 3.57579C9.71384 3.4345 10.0116 3.50122 10.1525 3.72298C10.2934 3.94473 10.2279 4.2391 10.0036 4.37843C9.47765 4.70811 8.96161 5.06527 8.46939 5.44402C8.38206 5.51074 8.27885 5.5441 8.17564 5.5441H8.17366ZM31.5325 4.80035C31.4392 4.80035 31.3459 4.77287 31.2626 4.71792C30.7465 4.37254 30.2086 4.04678 29.6628 3.75242C29.4306 3.62682 29.3433 3.33835 29.4703 3.10874C29.5973 2.87914 29.8891 2.79279 30.1213 2.91839C30.6949 3.22845 31.2606 3.56794 31.8004 3.93099C32.0207 4.07817 32.0763 4.3745 31.9275 4.59037C31.8342 4.72577 31.6833 4.79838 31.5285 4.79838L31.5325 4.80035ZM13.1713 2.7457C12.9788 2.7457 12.7962 2.62991 12.7228 2.44152C12.6275 2.19621 12.7486 1.92148 12.9967 1.82729C13.606 1.59376 14.2332 1.38574 14.8624 1.21305C15.1184 1.1424 15.3824 1.28958 15.4538 1.54273C15.5253 1.79588 15.3764 2.05689 15.1204 2.12754C14.521 2.29434 13.9216 2.49058 13.342 2.71233C13.2845 2.73392 13.2269 2.74373 13.1673 2.74373L13.1713 2.7457ZM26.3622 2.32574C26.3145 2.32574 26.2649 2.31789 26.2173 2.30415C25.6238 2.11968 25.0145 1.96073 24.4052 1.83317C24.1451 1.77823 23.9804 1.52703 24.034 1.26995C24.0896 1.01288 24.3436 0.848035 24.6036 0.902983C25.2427 1.03643 25.8838 1.20324 26.507 1.39752C26.7611 1.47601 26.9 1.7429 26.8206 1.99409C26.7551 2.19622 26.5666 2.32574 26.3622 2.32574ZM18.7704 1.4819C18.5223 1.4819 18.3119 1.2935 18.292 1.04428C18.2702 0.783276 18.4687 0.553676 18.7327 0.53209C19.3837 0.481067 20.0446 0.461443 20.6976 0.471255C20.9636 0.47518 21.1739 0.691044 21.17 0.954008C21.166 1.21305 20.9516 1.42106 20.6897 1.42106H20.6817C20.0605 1.41125 19.4273 1.43087 18.8081 1.47993C18.7942 1.47993 18.7823 1.47993 18.7704 1.47993V1.4819Z" fill="#F8F8F8"/>
<path d="M12.7473 28.3912C12.6123 28.3912 12.4774 28.3343 12.3821 28.2244C12.2094 28.0242 12.2332 27.7259 12.4357 27.5552L29.7132 12.9352C29.9156 12.7645 30.2173 12.788 30.39 12.9882C30.5626 13.1883 30.5388 13.4866 30.3364 13.6574L13.0589 28.2774C12.9676 28.3539 12.8565 28.3912 12.7473 28.3912Z" fill="#F8F8F8"/>
<path d="M30.024 28.3904C29.9128 28.3904 29.8017 28.3531 29.7123 28.2766L12.4349 13.6566C12.2324 13.4858 12.2106 13.1856 12.3813 12.9874C12.554 12.7872 12.8576 12.7656 13.0581 12.9344L30.3356 27.5544C30.538 27.7251 30.5599 28.0254 30.3892 28.2236C30.2939 28.3335 30.1589 28.3904 30.024 28.3904Z" fill="#F8F8F8"/>
</svg>
