<svg viewBox="0 0 85 84" fill="none" xmlns="http://www.w3.org/2000/svg">
<path d="M40.9818 7C40.1278 7 39.3923 7.61939 39.2523 8.46289L38.261 14.4307C36.5574 14.7235 34.9105 15.1763 33.3255 15.7637L29.47 11.0879C28.9275 10.4264 27.9835 10.2541 27.2415 10.6846L23.7552 12.7012C23.0132 13.1282 22.6886 14.0291 22.9896 14.8271L25.1087 20.4873C23.7947 21.5824 22.5807 22.7963 21.4857 24.1104L15.8255 21.9912C15.0275 21.6902 14.1265 22.0148 13.6995 22.7568L11.6829 26.2432C11.2524 26.9852 11.4247 27.9292 12.0862 28.4717L16.762 32.3271C16.1746 33.9121 15.7219 35.5591 15.429 37.2627L9.46124 38.2539C8.61774 38.3974 7.99835 39.1259 7.99835 39.9834V44.0166C7.99835 44.8706 8.61774 45.6061 9.46124 45.7461L15.429 46.7373C15.7219 48.4409 16.1746 50.0879 16.762 51.6729L12.0862 55.5283C11.4247 56.0708 11.2559 57.0148 11.6829 57.7568L13.6995 61.2432C14.1265 61.9852 15.0275 62.3098 15.8255 62.0088L21.4857 59.8896C22.5807 61.2037 23.7947 62.4176 25.1087 63.5127L22.9896 69.1729C22.6886 69.9744 23.0167 70.8718 23.7552 71.2988L27.2415 73.3154C27.9835 73.7424 28.9275 73.5701 29.47 72.9121L33.3187 68.2363C34.9055 68.8248 36.5553 69.2761 38.261 69.5693L39.2523 75.5371C39.3958 76.3806 40.1243 77 40.9818 77H45.015C45.869 77 46.6044 76.3806 46.7444 75.5371L47.7357 69.5693C49.4393 69.2765 51.0862 68.8237 52.6712 68.2363L56.5267 72.9121C57.0692 73.5736 58.0132 73.7424 58.7552 73.3154L62.2415 71.2988C62.9835 70.8718 63.3081 69.9709 63.0071 69.1729L60.888 63.5127C62.202 62.4176 63.416 61.2037 64.511 59.8896L70.1712 62.0088C70.9727 62.3098 71.8702 61.9817 72.2972 61.2432L74.3138 57.7568C74.7408 57.0148 74.5685 56.0708 73.9105 55.5283L69.2347 51.6797C69.8232 50.0929 70.2745 48.4431 70.5677 46.7373L76.5355 45.7461C77.379 45.6026 77.9984 44.8741 77.9984 44.0166V39.9834C77.9984 39.1294 77.379 38.3939 76.5355 38.2539L70.5677 37.2627C70.2748 35.5591 69.8221 33.9121 69.2347 32.3271L73.9105 28.4717C74.572 27.9292 74.7408 26.9852 74.3138 26.2432L72.2972 22.7568C71.8702 22.0148 70.9692 21.6902 70.1712 21.9912L64.511 24.1104C63.416 22.7963 62.202 21.5824 60.888 20.4873L63.0071 14.8271C63.3081 14.0256 62.98 13.1282 62.2415 12.7012L58.7552 10.6846C58.0132 10.2576 57.0692 10.4299 56.5267 11.0879L52.678 15.7637C51.0912 15.1752 49.4414 14.7239 47.7357 14.4307L46.7444 8.46289C46.6009 7.61939 45.8725 7 45.015 7H40.9818Z" fill="#9D9FB5"/>
<circle cx="42.9983" cy="42" r="19.3113" fill="#0A0E29" stroke="#F8F8F8" stroke-dasharray="2 2"/>
</svg>
