<svg viewBox="0 0 96 96" fill="none" xmlns="http://www.w3.org/2000/svg">
<g clip-path="url(#clip0_1_218)">
<path d="M18.38 38.4109C18.1104 39.1133 18.3876 39.9138 19.0371 40.2952L23.6323 42.9945C23.3353 44.488 23.1878 45.9855 23.1705 47.4745L18.1077 49.1692C17.3924 49.4065 16.9527 50.1285 17.0725 50.8747L17.6304 54.3786C17.7473 55.1237 18.3858 55.6751 19.1371 55.6795L24.4613 55.7236C24.9471 57.15 25.5622 58.5317 26.2972 59.8471L22.7674 63.8333C22.2679 64.3945 22.2505 65.238 22.7259 65.8235L24.9566 68.5826C25.4309 69.171 26.2617 69.3273 26.9167 68.9545L31.5638 66.3261C32.6819 67.3096 33.8935 68.2019 35.2021 68.9806L34.1333 74.2017C33.985 74.9407 34.3886 75.6801 35.0938 75.9508L38.4109 77.2241C39.1133 77.4938 39.9137 77.2165 40.2952 76.567L42.9944 71.9718C44.488 72.2688 45.9855 72.4164 47.4745 72.4337L49.1692 77.4964C49.4065 78.2117 50.1296 78.6486 50.8747 78.5317L54.3786 77.9738C55.1237 77.8569 55.6751 77.2183 55.6795 76.467L55.7235 71.1428C57.15 70.657 58.5316 70.0419 59.8471 69.3069L63.8332 72.8367C64.3974 73.3373 65.2391 73.3508 65.8234 72.8782L68.5826 70.6476C69.168 70.1721 69.3243 69.3413 68.9544 68.6874L66.3239 64.046C67.3089 62.9267 68.2009 61.7123 68.9806 60.402L74.2017 61.4709C74.9407 61.6191 75.6801 61.2155 75.9508 60.5103L77.2241 57.1932C77.4937 56.4909 77.2165 55.6904 76.567 55.309L71.9718 52.6097C72.2688 51.1161 72.4163 49.6187 72.4336 48.1297L77.4964 46.435C78.2117 46.1976 78.6486 45.4745 78.5316 44.7295L77.9737 41.2255C77.8568 40.4805 77.2183 39.9291 76.467 39.9247L71.1428 39.8806C70.657 38.4542 70.0419 37.0725 69.3069 35.757L72.8367 31.7709C73.3373 31.2068 73.3508 30.3651 72.8782 29.7807L70.6475 27.0215C70.1721 26.4361 69.3413 26.2798 68.6874 26.6497L64.046 29.2802C62.9267 28.2953 61.7123 27.4032 60.402 26.6236L61.4708 21.4025C61.6191 20.6635 61.2155 19.9241 60.5103 19.6533L57.1932 18.38C56.4908 18.1104 55.6904 18.3876 55.309 19.0372L52.6097 23.6324C51.1161 23.3354 49.6186 23.1878 48.1297 23.1705L46.4349 18.1078C46.1976 17.3925 45.4745 16.9556 44.7294 17.0725L41.2255 17.6304C40.4804 17.7473 39.929 18.3858 39.9246 19.1372L39.8806 24.4613C38.4541 24.9471 37.0725 25.5623 35.757 26.2973L31.7709 22.7675C31.2067 22.2669 30.365 22.2534 29.7807 22.726L27.0215 24.9566C26.4361 25.432 26.2798 26.2628 26.6497 26.9167L29.2802 31.5582C28.2952 32.6774 27.4032 33.8918 26.6235 35.2022L21.4025 34.1333C20.6634 33.985 19.924 34.3886 19.6533 35.0939L18.38 38.4109Z" fill="#3653F2"/>
<circle cx="47.8021" cy="47.8021" r="17.4528" transform="rotate(-69 47.8021 47.8021)" fill="#0A0E29"/>
<path d="M29.834 44.4627C28.0551 53.1748 32.7327 62.0889 41.3218 65.3859C43.4433 66.2003 45.6163 66.5779 47.7562 66.6045M32.044 38.7056C36.5515 31.0409 45.9923 27.5464 54.5814 30.8435C56.7054 31.6588 58.5726 32.8367 60.1819 34.2512M64.0802 39.018C66.6944 43.6496 67.2876 49.3656 65.2229 54.7445C63.1581 60.1234 58.8925 63.9743 53.8506 65.667" stroke="#F8F8F8" stroke-width="0.7"/>
</g>
<defs>
<clipPath id="clip0_1_218">
<rect width="74" height="74" fill="white" transform="translate(0 69.085) rotate(-69)"/>
</clipPath>
</defs>
</svg>
