<svg width="40" height="40" viewBox="0 0 40 40" fill="none" xmlns="http://www.w3.org/2000/svg">
<g clip-path="url(#clip0_1317_6849)">
<path d="M0 0H40V40H0V0Z" fill="#FFDF00"/>
<path d="M26.8698 31.2509C27.6755 32.5664 28.7238 33.5334 30.5778 33.5334C32.1352 33.5334 33.1301 32.7549 33.1301 31.6794C33.1301 30.3905 32.1079 29.934 30.3936 29.1841L29.4539 28.7809C26.7415 27.6254 24.9396 26.1777 24.9396 23.1174C24.9396 20.2984 27.0876 18.1523 30.4444 18.1523C32.8342 18.1523 34.5524 18.9841 35.7904 21.1619L32.8635 23.0412C32.219 21.8857 31.5238 21.4305 30.4444 21.4305C29.3435 21.4305 28.6457 22.1289 28.6457 23.0412C28.6457 24.1689 29.3441 24.6254 30.9567 25.3238L31.8964 25.7263C35.0901 27.0959 36.8932 28.492 36.8932 31.6311C36.8932 35.0152 34.2348 36.8692 30.6646 36.8692C27.1739 36.8692 24.9186 35.2057 23.8151 33.0254L26.8698 31.2509ZM13.5917 31.5766C14.1821 32.6242 14.7193 33.5099 16.0107 33.5099C17.2457 33.5099 18.0247 33.0267 18.0247 31.148V18.367H21.7835V31.1987C21.7835 35.0908 19.5016 36.8623 16.1707 36.8623C13.1612 36.8623 11.4184 35.3048 10.532 33.4289L13.5917 31.5766Z" fill="black"/>
</g>
<defs>
<clipPath id="clip0_1317_6849">
<rect width="40" height="40" rx="8" fill="white"/>
</clipPath>
</defs>
</svg>
