<svg viewBox="0 0 299 249" fill="none" xmlns="http://www.w3.org/2000/svg">
<path opacity="0.06" d="M183.372 184.681C183.211 185.741 182.955 186.786 182.723 187.831C182.546 188.624 182.458 189.528 182.223 190.293C182.119 190.629 182.349 190.877 182.614 190.94C180.324 199.765 175.543 207.928 168.341 214.257C148.559 231.639 117.719 228.879 99.4572 208.093C86.917 193.819 83.5689 174.758 89.1058 158.586C89.8508 157.204 90.799 155.944 91.5135 154.545C91.8178 153.949 91.9852 153.304 92.2768 152.708C92.6378 151.969 93.1707 151.297 93.6175 150.606C94.49 149.256 95.2342 147.824 96.128 146.49C97.1633 144.945 98.5083 143.599 99.8923 142.366C100.059 142.218 100.091 142.033 100.043 141.868C101.146 140.88 102.088 139.789 103.139 138.736C104.323 137.549 105.688 137.071 107.135 136.307C108.615 135.527 109.619 134.083 111.103 133.288C111.71 132.962 112.373 132.764 112.973 132.425C113.678 132.028 114.384 131.603 115.071 131.174C115.177 131.108 115.245 131.021 115.285 130.927C133.879 123.441 156.806 128.269 171.398 144.877L171.414 144.896C180.365 155.093 184.55 167.796 184.159 180.143C183.869 181.651 183.603 183.16 183.373 184.68L183.372 184.681Z" fill="#BBFFFC"/>
<path d="M127.284 225.034C124.006 224.448 121.849 223.116 118.754 221.894C118.498 222.38 117.742 223.848 117.486 224.334C118.299 224.66 119.118 224.972 119.947 225.258C134.888 230.565 152.13 228.21 165.244 219.409C165.158 219.279 165.073 219.149 164.987 219.019C164.771 218.691 163.901 217.305 163.688 216.975C153.083 224.057 139.841 227.368 127.284 225.034Z" fill="#43BACF"/>
<path d="M186.7 181.445C186.637 181.438 186.573 181.432 186.509 181.426C186.451 182.111 186.38 182.795 186.3 183.477C184.771 196.272 178.093 208.3 168.091 216.413C166.625 217.62 165.164 218.731 163.595 219.78C163.7 219.956 163.804 220.133 163.909 220.309C164.977 219.599 166.012 218.839 167.024 218.053C177.13 210.391 184.223 198.955 186.472 186.463C186.783 184.796 186.973 183.17 187.118 181.509C186.978 181.488 186.839 181.467 186.7 181.446L186.7 181.445Z" fill="#311F57"/>
<path d="M292.261 35.8443C290.008 33.811 285.857 31.6007 281.371 33.2951C281.364 33.2983 281.357 33.3023 281.35 33.3051C281.36 33.3204 281.371 33.3349 281.381 33.3497C281.384 33.3532 281.386 33.3565 281.389 33.3604C281.74 33.824 282.09 34.2864 282.45 34.7421C282.465 34.7402 282.481 34.738 282.497 34.7354C287.432 34.3877 290.788 37.0297 292.596 40.3685C293.377 42.0461 293.845 44.3748 292.972 46.7978C293.058 46.8932 293.145 46.9897 293.231 47.0855C293.553 47.4441 293.874 47.8023 294.195 48.1613C296.786 43.5275 295.275 39.199 292.982 36.586C292.749 36.3204 292.507 36.0726 292.261 35.8443Z" fill="#42285C"/>
<path d="M87.2898 170.731C85.57 170.377 86.3466 178.513 86.271 179.811C86.9627 192.492 92.7867 204.527 101.646 213.539C101.972 213.184 102.3 212.832 102.625 212.477C95.3929 205.101 90.2127 195.702 88.3967 185.509C87.6075 181.147 87.4108 176.536 87.8194 172.174C87.878 171.771 87.9556 171.234 87.6949 170.937C87.605 170.835 87.4746 170.761 87.2898 170.731Z" fill="#3653F2"/>
<path d="M166.446 137.359C156.441 129.694 143.719 125.79 131.144 126.216C131.368 126.858 131.592 127.501 131.816 128.143C132.507 128.129 133.197 128.128 133.888 128.138C138.518 128.225 143.133 128.888 147.594 130.134C157.512 132.868 166.507 138.617 173.205 146.348C173.206 146.347 173.206 146.346 173.207 146.345C173.571 145.776 173.969 145.229 174.36 144.677C174.339 144.654 174.319 144.63 174.298 144.607C171.948 141.929 169.319 139.491 166.446 137.359Z" fill="#EE684C"/>
<path d="M174.564 141.878C169.457 136.482 163.261 132.051 156.401 129.174C156.358 129.281 156.314 129.388 156.271 129.496C156.201 129.673 156.129 129.85 156.058 130.028C162.873 132.886 169.008 137.319 174.028 142.65C182.835 152.016 187.706 164.922 187.223 177.754C187.156 180.193 186.87 182.618 186.488 185.024C186.58 185.042 186.672 185.059 186.765 185.077C186.973 185.117 187.183 185.155 187.391 185.192C187.535 184.288 187.669 183.382 187.781 182.473C189.61 168.48 185.162 153.894 175.863 143.299C175.439 142.816 175.007 142.343 174.563 141.878L174.564 141.878Z" fill="#EE4343"/>
<path d="M84.6762 175.516C84.9496 175.505 85.2227 175.494 85.4958 175.482C85.5121 175.482 85.5288 175.481 85.5451 175.479C85.9264 175.446 86.3072 175.412 86.6878 175.378C86.8254 175.365 86.9634 175.353 87.101 175.341C87.1075 175.24 87.1141 175.138 87.1215 175.037C88.33 155.006 102.545 136.597 121.756 130.652C125.458 129.487 129.281 128.71 133.15 128.394C133.612 128.303 134.106 128.297 134.602 128.298C134.545 128.154 134.487 128.009 134.429 127.866C134.174 127.231 133.922 126.593 133.671 125.957C106.434 127.759 86.4355 149.848 84.6762 175.516Z" fill="#FFD84F"/>
<path d="M293.118 47.8242C292.435 47.6873 291.854 47.2476 291.177 47.083C288.197 46.2339 286.595 47.6984 285.328 50.2582C285.26 50.4113 285.305 50.592 285.46 50.6719C285.603 50.7449 285.806 50.6928 285.874 50.5397C286.079 50.0936 286.303 49.7056 286.576 49.315C287.747 47.5854 289.017 47.1234 291.026 47.6771C291.959 47.8888 292.965 48.9138 293.872 48.1327C293.971 48.0628 294.067 47.9895 294.161 47.9137C294.146 47.894 294.13 47.8743 294.114 47.855C294.127 47.8725 294.142 47.8897 294.155 47.9063C294.03 47.7529 293.905 47.5999 293.78 47.4468C293.578 47.609 293.362 47.7451 293.117 47.8246L293.118 47.8242Z" fill="#3653F2"/>
<path d="M282.2 34.381C282.131 34.4427 282.062 34.5035 281.992 34.5639C281.876 34.6668 281.76 34.7684 281.643 34.8708C281.73 35.0367 281.81 35.2043 281.885 35.3748C282.56 36.9039 282.472 38.9917 281.096 40.1052C278.945 41.9013 276.388 40.3081 276.35 41.8106C276.371 42.1631 276.694 42.4682 277.054 42.4333C277.559 42.3857 278.069 42.4003 278.576 42.3841C280.59 42.3314 282.771 41.0601 283.332 39.0623C283.697 38.0295 283.72 36.9197 283.45 35.8671C283.359 35.7809 283.279 35.6831 283.198 35.5845C283.143 35.5168 283.088 35.4498 283.034 35.3822L283.033 35.3818C283.029 35.3766 283.024 35.3714 283.02 35.3659C283.025 35.3715 283.028 35.3762 283.033 35.3818C282.968 35.2992 282.904 35.2175 282.839 35.1358C282.678 34.9385 282.516 34.7421 282.349 34.5494C282.299 34.4921 282.248 34.4357 282.198 34.3788L282.2 34.381Z" fill="#3653F2"/>
<path d="M265.09 77.5543L257.596 68.3247L275.484 53.8L282.978 63.0296L265.09 77.5543Z" fill="#422142"/>
<path d="M250.669 89.2816L247.184 84.9893L278.151 59.8443L281.637 64.1367L250.669 89.2816Z" fill="#413A50"/>
<path d="M271.365 48.2975C269.408 46.394 267.339 44.6049 265.165 42.954C265.077 43.0213 264.99 43.089 264.903 43.1581C264.9 43.1599 264.898 43.1618 264.895 43.1645C264.884 43.1739 264.873 43.1841 264.861 43.1923C264.854 43.1971 264.848 43.2024 264.843 43.2061C264.69 43.3285 264.537 43.4508 264.384 43.5728C264.381 43.5751 264.379 43.5773 264.376 43.5792C264.37 43.5845 264.364 43.5897 264.357 43.5954C264.368 43.5868 264.378 43.5785 264.389 43.5703C264.291 43.6499 264.193 43.7301 264.096 43.8105C264.634 44.2186 265.164 44.6366 265.692 45.0574C272.16 50.1741 277.342 56.6687 282.176 63.2888C282.233 63.4087 282.314 63.4967 282.406 63.5571C282.436 63.5225 282.467 63.4876 282.496 63.453C282.627 63.3027 282.763 63.1562 282.887 63.0003C283.011 62.8435 283.134 62.6872 283.259 62.5309C282.923 61.9574 282.46 61.4857 282.083 60.9303C280.845 59.2878 279.603 57.6475 278.318 56.0398C277.4 54.8878 276.455 53.7552 275.482 52.6471C274.165 51.1465 272.795 49.6915 271.365 48.2991L271.365 48.2975Z" fill="#44BAD0"/>
<path d="M266.784 42.5133C264.596 42.3883 262.726 44.902 261.207 46.2367C259.708 47.686 258.196 49.1182 256.709 50.5779C256.44 50.8661 256.873 51.2884 257.157 50.9971C258.982 49.2152 260.831 47.4575 262.663 45.6817C263.693 44.7251 264.658 43.6425 266.011 43.1875C266.22 43.1427 266.433 43.1167 266.647 43.1156C266.786 43.1612 266.94 43.0913 267.009 42.9643C267.111 42.7859 266.982 42.5453 266.784 42.5133Z" fill="#FF3B6A"/>
<path d="M276.7 41.1427L277.334 40.5371L286.643 50.2864L286.008 50.892L276.7 41.1427Z" fill="#003365"/>
<path d="M283.811 53.0019L286.66 50.2808L286.659 50.28L286.025 50.8853L276.715 41.1371L274.501 43.2521L283.811 53.0019Z" fill="#FF3B6A"/>
<path d="M235.382 72.2494L246.07 62.0405L249.576 65.7104L238.887 75.9193L235.382 72.2494Z" fill="#3653F2"/>
<path d="M234.664 71.4989L259.219 48.0459L260.755 49.6547L236.201 73.1077L234.664 71.4989Z" fill="#DEE840"/>
<path d="M249.843 92.1609L232.049 71.8887L235.451 68.902L253.246 89.1743L249.843 92.1609Z" fill="#47C05D"/>
<path d="M244.058 92.1596C243.862 91.9517 243.667 91.7445 243.471 91.5366C242.784 90.8059 242.097 90.0744 241.412 89.3418C240.938 88.8357 240.468 88.3253 240.001 87.8131C236.965 89.8366 233.335 93.3949 231.329 94.6151C221.96 101.914 212.579 109.201 203.212 116.5C203.418 116.766 203.625 117.031 203.833 117.294C204.469 118.096 205.105 118.899 205.742 119.701C206.329 120.439 206.902 121.189 207.481 121.933C207.636 122.131 207.793 122.327 207.95 122.522C209.065 121.65 210.191 120.79 211.309 119.921C219.756 113.346 228.203 106.771 236.649 100.196C239.515 97.966 242.382 95.7343 245.248 93.5031C244.849 93.0574 244.455 92.6076 244.058 92.1596Z" fill="#2EAC61"/>
<path d="M233.311 72.3756C232.903 72.7919 232.493 73.206 232.08 73.6187C236.762 79.1849 241.601 84.625 246.593 89.9107C247.143 90.4839 247.702 91.0503 248.258 91.6179C248.49 91.3931 248.722 91.1687 248.954 90.9431C248.941 90.9557 248.928 90.9686 248.914 90.9811C248.954 90.9431 248.993 90.9055 249.031 90.867C249.031 90.8677 249.029 90.8689 249.028 90.8696C249.115 90.7856 249.201 90.7011 249.287 90.6174C249.288 90.6166 249.288 90.6162 249.289 90.6155C249.289 90.6159 249.288 90.6166 249.287 90.6174C249.286 90.6185 249.285 90.6197 249.283 90.6208C249.355 90.5512 249.425 90.4815 249.497 90.4118C243.876 84.6014 238.505 78.5637 233.31 72.3747L233.311 72.3756Z" fill="#47C05D"/>
<path d="M281.289 51.2263C281.291 51.2236 281.293 51.2209 281.296 51.2187C281.245 51.2681 281.194 51.318 281.143 51.367C281.595 52.1924 281.93 53.0296 282.247 53.933C283 56.19 283.278 58.723 282.802 61.0482C282.71 61.7882 282.335 62.4031 281.791 62.8576C282.025 63.1979 282.258 63.5402 282.489 63.8824C283.768 62.8909 284.074 61.4959 284.209 59.7874C284.474 56.5953 283.667 53.2697 282.044 50.5023C281.793 50.7436 281.541 50.9846 281.289 51.2268L281.289 51.2263Z" fill="#2EAC61"/>
<path d="M265.082 42.5472C265.286 42.8073 265.489 43.0685 265.689 43.3316C265.76 43.4247 265.831 43.5177 265.902 43.6108C268.79 43.0581 271.85 43.9944 274.44 45.2658C274.86 45.4948 275.26 45.721 275.642 45.9654C276.004 45.7183 276.367 45.4711 276.73 45.2261C273.65 43.1119 268.794 41.4876 265.082 42.548L265.082 42.5472Z" fill="#2EAC61"/>
<path d="M207.037 100.358C206.837 100.138 206.447 100.117 206.214 100.346C204.609 101.917 203.003 103.49 201.398 105.063C197.981 108.41 194.564 111.759 191.146 115.105C187.637 118.547 184.122 121.983 180.613 125.424C180.223 125.807 179.832 126.19 179.442 126.572C179.614 126.833 179.787 127.094 179.96 127.356C180 127.417 180.041 127.478 180.081 127.54C180.463 127.129 180.802 126.753 181.007 126.613C185.407 122.304 189.806 117.994 194.205 113.684C197.565 110.394 200.924 107.103 204.282 103.812C205.178 102.934 206.075 102.056 206.972 101.177C207.203 100.951 207.247 100.599 207.043 100.365L207.036 100.358L207.037 100.358Z" fill="#FF3B6A"/>
<path d="M244.676 93.0276C244.83 93.3469 245.048 93.6622 245.293 93.9482C244.858 94.2875 244.422 94.6265 243.985 94.9658C233.594 103.048 223.214 111.144 212.82 119.223C211.952 119.835 210.96 118.567 211.745 117.862C222.62 109.395 233.501 100.928 244.379 92.4599C244.462 92.5465 244.546 92.6319 244.63 92.7182C244.611 92.8127 244.623 92.9178 244.676 93.0276Z" fill="#F26366"/>
<path d="M230.131 76.8633C229.945 76.6474 229.756 76.4346 229.57 76.2192C224.413 81.2891 219.257 86.3615 214.1 91.4322C210.508 94.9726 206.908 98.5033 203.314 102.04C203.73 102.529 204.15 103.015 204.574 103.498C204.602 103.529 204.63 103.559 204.657 103.589C212.961 95.4181 221.271 87.2552 229.575 79.0842C230.027 78.64 230.479 78.1953 230.931 77.7506C230.664 77.4552 230.391 77.1639 230.131 76.8633Z" fill="#EF7823"/>
<path d="M215.049 115.301C215.049 115.301 215.049 115.303 215.05 115.303C215.05 115.303 215.049 115.303 215.049 115.301C215.046 115.299 215.044 115.295 215.042 115.293C215.044 115.296 215.046 115.298 215.049 115.301Z" fill="#FBAF15"/>
<path d="M187.795 136.261C187.877 136.318 187.961 136.376 188.043 136.433C188.204 136.545 188.37 136.65 188.534 136.759C188.696 136.866 188.857 136.974 189.023 137.077C189.338 137.273 189.654 137.467 189.972 137.658C196.28 132.568 202.583 127.476 208.891 122.389C210.515 121.077 212.14 119.767 213.765 118.457C213.733 118.42 213.701 118.382 213.67 118.344C213.562 118.212 213.454 118.082 213.346 117.95C213.308 117.906 213.27 117.861 213.232 117.817C212.884 117.403 212.533 116.992 212.184 116.578C204.057 123.139 195.923 129.698 187.795 136.261Z" fill="#FFD84F"/>
<path d="M171.032 136.075C171.008 136.1 170.986 136.125 170.963 136.151C171.014 136.364 171.076 136.554 171.114 136.66C172.202 139.481 174.695 142.056 176.856 144.137C177.579 144.797 178.357 145.484 179.265 145.863C179.426 145.705 179.589 145.549 179.752 145.392C179.703 145.378 179.654 145.362 179.605 145.345C178.749 145.007 178.016 144.357 177.349 143.756C176.311 142.806 175.339 141.778 174.428 140.707C173.207 139.181 171.796 137.553 171.489 135.573C171.489 135.571 171.488 135.569 171.488 135.566C171.337 135.737 171.184 135.906 171.032 136.075L171.032 136.075Z" fill="#FFD84F"/>
<path d="M173.163 134.786C173.002 134.922 172.835 135.051 172.668 135.18C173.111 136.221 173.734 137.189 174.425 138.092C175.86 140.015 178.189 142.523 180.513 143.744C180.703 143.617 180.891 143.488 181.075 143.355C177.914 141.628 174.635 138.064 173.164 134.786L173.163 134.786Z" fill="#FFD84F"/>
<path d="M174.598 133.353C174.488 133.463 174.378 133.574 174.267 133.684C174.28 133.671 174.292 133.659 174.304 133.646C174.271 133.68 174.237 133.713 174.204 133.747C174.217 133.735 174.229 133.722 174.241 133.71C174.211 133.741 174.18 133.771 174.149 133.802C175.586 135.943 177.203 137.959 179.034 139.78C179.871 140.618 180.783 141.37 181.73 142.008C181.801 142.047 181.87 142.096 181.937 142.146C182.11 142.014 182.282 141.882 182.453 141.748C179.203 139.625 176.748 136.536 174.597 133.353L174.598 133.353Z" fill="#FFD84F"/>
<path d="M177.572 131.699C177.429 131.812 177.284 131.922 177.14 132.034C177.124 132.045 177.109 132.057 177.094 132.068C179.177 134.573 181.235 137.152 183.564 139.411C183.647 139.493 183.73 139.576 183.814 139.658C183.926 139.562 184.042 139.468 184.16 139.38C184.203 139.348 184.245 139.317 184.287 139.285C181.892 136.892 179.727 134.311 177.572 131.698L177.572 131.699Z" fill="#EE4343"/>
<path d="M180.691 131.512C180.1 130.759 179.542 129.984 178.995 129.198C178.969 129.227 178.942 129.255 178.915 129.285C178.799 129.411 178.684 129.537 178.569 129.665C179.094 130.419 179.654 131.186 180.206 131.886C182.071 134.228 184.064 136.505 186.347 138.45C186.498 138.311 186.652 138.173 186.799 138.03C184.523 136.098 182.544 133.839 180.691 131.512L180.691 131.512Z" fill="#FF3B6A"/>
<path d="M186.912 135.076C184.761 133.129 182.706 130.954 181.122 128.537C180.765 127.986 180.419 127.44 180.096 126.875C179.943 127.02 179.792 127.165 179.641 127.312C181.2 130.043 183.25 132.473 185.533 134.629C186.654 135.706 187.82 136.753 189.144 137.569C189.175 137.543 189.207 137.515 189.239 137.489C189.371 137.373 189.504 137.258 189.637 137.143C188.661 136.545 187.74 135.862 186.912 135.076L186.912 135.076Z" fill="#FF3B6A"/>
<path d="M246.204 94.6424L229.24 75.3159L231.907 72.9747L248.872 92.3012L246.204 94.6424Z" fill="#7772B6"/>
<path d="M249.843 92.1609L232.049 71.8887L232.612 71.3941L250.407 91.6663L249.843 92.1609Z" fill="white"/>
<path d="M245.527 94.7749L228.928 75.8643L229.491 75.3696L246.09 94.2803L245.527 94.7749Z" fill="white"/>
<path d="M169.559 142.251C167.703 140.399 165.717 138.674 163.604 137.121C163.262 136.846 162.781 137.316 163.133 137.66C163.453 137.901 163.791 138.142 164.1 138.388C171.137 143.826 176.729 151.095 180.079 159.332C184.679 170.174 184.624 182.551 180.761 193.589C180.698 193.774 180.793 193.981 180.979 194.047C181.161 194.111 181.373 194.014 181.436 193.829C182.124 191.815 182.685 189.761 183.145 187.683C187.009 171.435 181.344 153.905 169.56 142.25L169.559 142.251Z" fill="#3653F2"/>
<path d="M88.2293 170.332C88.0093 170.443 87.7894 170.555 87.5694 170.667C87.5468 170.858 87.5259 171.048 87.5058 171.239C86.6282 179.396 87.8841 187.743 90.9058 195.359C90.97 195.608 91.1724 195.871 91.4576 195.748C91.6384 195.67 91.7209 195.458 91.6465 195.278C91.3741 194.624 91.1292 193.959 90.895 193.3C88.9451 187.787 87.9163 181.943 87.9475 176.101C87.9562 174.147 88.0968 172.211 88.3371 170.278C88.301 170.296 88.265 170.314 88.2293 170.332Z" fill="#3653F2"/>
<path d="M288.251 40.6608L288.267 40.6789C285.918 38.165 283.63 35.7188 281.382 33.1489C281.14 33.3909 280.898 33.6329 280.655 33.8736L280.665 33.8848C280.816 34.0623 280.969 34.239 281.125 34.4119C283.159 36.6886 285.25 38.9609 287.332 41.1721C289.508 43.5258 291.611 45.9401 293.599 48.4505C293.852 48.2213 294.104 47.991 294.353 47.7588C293.981 47.2869 293.608 46.8154 293.23 46.3479C292.371 45.3142 291.498 44.2918 290.611 43.2814C289.835 42.3976 289.049 41.5237 288.251 40.6596L288.251 40.6608Z" fill="#802B92"/>
<path d="M181.567 189.844C180.024 195.829 177.286 201.471 173.569 206.355C158.409 226.895 128.394 230.742 108.343 215.098C100.604 209.143 94.5947 201.139 91.2715 192.034C91.1466 192.087 91.0222 192.14 90.8974 192.193C90.4525 192.381 90.011 192.578 89.5721 192.78C91.0285 196.802 93.0837 200.608 95.4787 204.145C111.788 229.072 147.713 234.558 169.524 213.594C175.749 207.756 180.423 200.275 182.854 192.089C182.908 191.707 183.113 191.032 183.346 190.245C182.753 190.111 182.161 189.975 181.568 189.844L181.567 189.844Z" fill="#213564"/>
<path d="M88.3507 166.24C87.7544 168.79 87.3236 171.387 87.0962 174.001C87.5072 174.022 87.9185 174.044 88.3294 174.067C89.0486 165.763 91.7446 157.674 96.3092 150.684C106.989 133.906 128.683 125.382 147.876 130.708C151.926 131.787 155.824 133.369 159.468 135.432C161.212 136.427 162.881 137.53 164.479 138.732C164.651 138.485 164.82 138.237 164.987 137.987C164.96 138.027 164.933 138.069 164.906 138.109C164.994 137.976 165.081 137.844 165.169 137.712C137.014 116.505 96.2606 131.577 88.3502 166.241L88.3507 166.24Z" fill="#181A43"/>
<path d="M111.231 149.61C110.527 149.086 109.811 148.58 109.096 148.072C107.717 147.089 106.338 146.108 104.958 145.125C104.059 146.087 103.232 147.002 102.501 147.746C97.2701 153.902 93.9409 161.487 92.584 169.425C92.7186 169.483 92.8527 169.543 92.9873 169.601C95.1478 170.543 97.3215 171.45 99.5015 172.343C99.4801 172.335 99.4571 172.326 99.4358 172.317C100.875 172.9 102.31 173.493 103.737 174.104C103.78 173.622 103.831 173.141 103.89 172.661C104.789 165.303 108.16 158.328 113.396 153.076C113.714 152.694 114.07 152.341 114.45 152.006C113.376 151.208 112.303 150.408 111.231 149.61L111.231 149.61Z" fill="white"/>
<g clip-path="url(#clip0_3458_37610)">
<path d="M83.2834 205.582L70.579 205.615L70.6351 227.316L48.8752 227.373L48.8191 205.671L3.82776 205.788L3.78729 190.26L49.8268 122.1L70.363 122.047L70.5346 188.281L83.239 188.249L83.2834 205.582ZM48.7747 188.338L48.729 170.46C48.7209 167.48 48.8292 163.155 49.0541 157.482C49.2789 151.812 49.4623 148.52 49.606 147.605L49.0291 147.606C47.2606 151.553 45.1299 155.403 42.6402 159.157L23.3851 188.402L48.7764 188.336L48.7747 188.338Z" fill="#3653F2"/>
<path d="M55.4882 227.354C55.4678 227.358 55.449 227.361 55.4279 227.36L43.8361 227.537C43.6175 227.54 43.4363 227.364 43.4332 227.146L43.1089 205.844L24.8773 206.121C24.6587 206.125 24.4775 205.949 24.4744 205.73C24.4713 205.512 24.6467 205.329 24.8656 205.327L43.4943 205.044C43.6003 205.042 43.7007 205.083 43.7774 205.155C43.8528 205.23 43.8969 205.329 43.8987 205.435L44.2214 226.737L55.4161 226.566C55.6348 226.563 55.8159 226.738 55.819 226.957C55.8221 227.156 55.6793 227.322 55.4882 227.354ZM65.5338 219.326C65.5135 219.33 65.4947 219.333 65.4735 219.331C65.2549 219.335 65.0737 219.159 65.0706 218.94L64.861 205.114C64.8592 205.008 64.9002 204.908 64.9726 204.831C65.0454 204.756 65.1458 204.712 65.2519 204.71L77.5575 204.523L77.307 187.986L65.0013 188.173C64.8953 188.174 64.7949 188.133 64.7182 188.061C64.6428 187.987 64.5987 187.888 64.5969 187.782L63.5971 121.951L43.6713 122.254L-1.38971 190.815C-1.51024 190.998 -1.75618 191.049 -1.93931 190.929C-2.12243 190.808 -2.17366 190.563 -2.05313 190.379L43.1234 121.644C43.195 121.534 43.3174 121.466 43.4493 121.465L63.9826 121.153C64.2013 121.15 64.3824 121.325 64.3855 121.544L65.3853 187.375L77.691 187.188C77.797 187.186 77.8974 187.227 77.9741 187.3C78.0495 187.374 78.0937 187.473 78.0955 187.579L78.3593 204.91C78.3611 205.016 78.32 205.116 78.2476 205.193C78.1749 205.268 78.0744 205.312 77.9681 205.313L65.6624 205.499L65.8663 218.928C65.8693 219.128 65.7265 219.294 65.5354 219.326L65.5338 219.326ZM43.3022 188.5C43.2819 188.503 43.2631 188.506 43.2419 188.505L17.853 188.892C17.7067 188.894 17.571 188.816 17.4996 188.689C17.428 188.561 17.434 188.405 17.5128 188.281L27.8122 172.2C27.9309 172.016 28.1763 171.961 28.3607 172.08C28.5452 172.199 28.5995 172.444 28.4808 172.629L18.5808 188.088L42.8334 187.719L42.5672 170.24C42.5218 167.254 42.5769 162.88 42.7298 157.243C42.8544 152.622 42.9701 149.617 43.0817 148.132C41.4119 151.896 39.3915 155.626 37.0685 159.225L32.7794 165.921C32.6607 166.106 32.4153 166.16 32.2308 166.041C32.0464 165.923 31.992 165.677 32.1107 165.493L36.3996 158.795C38.822 155.041 40.9115 151.148 42.6133 147.22C42.6762 147.077 42.815 146.983 42.9725 146.981L43.5495 146.972C43.6652 146.97 43.7766 147.019 43.8544 147.107C43.9319 147.194 43.9661 147.311 43.9502 147.426C43.8219 148.316 43.6804 151.627 43.5276 157.263C43.3747 162.89 43.3205 167.251 43.3659 170.227L43.638 188.103C43.6398 188.209 43.5988 188.31 43.5263 188.386C43.4674 188.448 43.3902 188.487 43.3072 188.501L43.3022 188.5Z" fill="#E9F0FF"/>
<path d="M273.191 205.942L260.486 205.903L260.42 227.604L238.659 227.537L238.726 205.835L193.735 205.696L193.784 190.168L240.209 122.272L260.745 122.335L260.542 188.57L273.246 188.609L273.192 205.942L273.191 205.942ZM238.78 188.5L238.835 170.624C238.844 167.644 238.976 163.32 239.234 157.648C239.491 151.979 239.693 148.687 239.842 147.775L239.264 147.773C237.472 151.71 235.32 155.548 232.809 159.286L213.387 188.421L238.778 188.5L238.78 188.5Z" fill="#3653F2"/>
<path d="M235.279 227.966C235.111 227.918 234.99 227.763 234.991 227.58L235.218 206.276L190.628 205.798C190.522 205.798 190.422 205.754 190.348 205.678C190.274 205.603 190.233 205.502 190.235 205.397L190.401 189.868C190.402 189.789 190.426 189.712 190.471 189.646L225.424 139.347C225.55 139.167 225.796 139.122 225.976 139.248C226.157 139.373 226.202 139.62 226.076 139.8L191.192 189.998L191.032 205.005L235.622 205.483C235.841 205.485 236.018 205.666 236.014 205.885L235.788 227.188L256.752 227.412L256.979 206.109C256.981 205.89 257.162 205.714 257.381 205.717L269.687 205.848L269.863 189.31L257.556 189.179C257.337 189.177 257.161 188.996 257.164 188.777L257.266 179.212C257.267 178.992 257.447 178.816 257.667 178.82C257.887 178.821 258.063 179.002 258.06 179.221L257.963 188.389L270.269 188.521C270.375 188.521 270.475 188.565 270.549 188.641C270.623 188.716 270.664 188.817 270.662 188.922L270.478 206.255C270.476 206.474 270.295 206.65 270.076 206.647L257.77 206.516L257.543 227.821C257.542 227.927 257.499 228.026 257.423 228.101C257.347 228.175 257.246 228.215 257.141 228.213L235.382 227.981C235.346 227.98 235.309 227.975 235.277 227.966L235.279 227.966ZM210.305 188.66C210.203 188.631 210.114 188.56 210.062 188.463C209.995 188.333 210.004 188.177 210.085 188.056L229.725 159.069C232.243 155.378 234.433 151.54 236.236 147.659C236.301 147.518 236.444 147.428 236.6 147.43L237.177 147.437C237.294 147.439 237.403 147.49 237.478 147.579C237.554 147.668 237.584 147.786 237.565 147.9C237.415 148.786 237.186 152.092 236.888 157.723C236.591 163.343 236.424 167.701 236.391 170.679L236.201 188.555C236.199 188.774 236.018 188.95 235.799 188.947L210.41 188.675C210.374 188.675 210.339 188.67 210.305 188.66ZM236.681 148.58C234.915 152.3 232.798 155.975 230.383 159.515L211.157 187.89L235.411 188.15L235.597 170.671C235.629 167.682 235.796 163.312 236.095 157.682C236.34 153.065 236.532 150.065 236.682 148.582L236.681 148.58ZM257.655 170.124C257.487 170.076 257.366 169.921 257.368 169.738L257.378 168.68C257.378 168.68 257.378 168.68 257.379 168.678L257.866 122.943L237.94 122.73L230.051 134.083C229.925 134.264 229.679 134.309 229.498 134.183C229.317 134.058 229.273 133.81 229.399 133.63L237.409 122.104C237.484 121.996 237.607 121.931 237.738 121.934L258.273 122.154C258.492 122.155 258.668 122.336 258.665 122.555L258.174 168.688C258.174 168.688 258.174 168.688 258.174 168.69L258.163 169.748C258.161 169.967 257.982 170.144 257.761 170.14C257.725 170.139 257.689 170.134 257.655 170.124Z" fill="#E9F0FF"/>
</g>
<defs>
<clipPath id="clip0_3458_37610">
<rect width="272" height="117.179" fill="white" transform="translate(0 118)"/>
</clipPath>
</defs>
</svg>
