<svg width="408" height="244" viewBox="0 0 408 244" fill="none" xmlns="http://www.w3.org/2000/svg">
<g clip-path="url(#clip0_3539_25220)">
<path d="M361.18 133.099H379.948C380.29 133.099 380.568 132.823 380.568 132.484V121.771C380.898 121.648 381.228 121.52 381.554 121.385L388.891 129.06C389.007 129.179 389.165 129.248 389.33 129.251C389.502 129.251 389.656 129.19 389.776 129.073L403.261 115.853C403.5 115.618 403.507 115.236 403.274 114.993L396.265 107.662C396.683 106.819 397.061 105.945 397.396 105.056H407.287C407.628 105.056 407.906 104.779 407.906 104.44V85.797C407.906 85.4577 407.628 85.1814 407.287 85.1814H397.414C397.233 84.6961 397.038 84.2175 396.835 83.7502L403.953 76.9584C404.199 76.7225 404.208 76.3338 403.971 76.0889L390.968 62.6446C390.855 62.5278 390.698 62.4582 390.533 62.4559C390.371 62.4559 390.21 62.5143 390.092 62.6267L382.959 69.4342C382.162 69.0545 381.346 68.7085 380.518 68.4029V58.5961C380.518 58.2568 380.24 57.9805 379.898 57.9805H361.13C360.788 57.9805 360.51 58.2568 360.51 58.5961V68.4209C359.893 68.6501 359.28 68.9017 358.683 69.1713L351.701 62.2133C351.459 61.9729 351.067 61.9729 350.825 62.2133L337.53 75.3745C337.415 75.4891 337.349 75.6463 337.347 75.8103C337.347 75.9743 337.413 76.1294 337.528 76.2462L344.497 83.1908C344.203 83.8244 343.929 84.4781 343.68 85.1387H333.789C333.448 85.1387 333.17 85.415 333.17 85.7543V104.759C333.17 105.098 333.448 105.375 333.789 105.375H343.798C344.001 105.898 344.225 106.422 344.461 106.936L337.261 114.052C337.022 114.287 337.017 114.672 337.25 114.912L350.359 128.514C350.475 128.633 350.633 128.702 350.798 128.702H350.805C350.968 128.702 351.126 128.637 351.241 128.523L358.78 121.073C359.361 121.331 359.954 121.574 360.551 121.794V132.49C360.551 132.83 360.829 133.106 361.171 133.106L361.18 133.099ZM379.331 131.868H361.8V121.356C361.8 121.095 361.634 120.864 361.388 120.776C360.553 120.482 359.723 120.145 358.923 119.772C358.687 119.662 358.407 119.709 358.224 119.893L350.828 127.202L338.575 114.49L345.653 107.496C345.838 107.311 345.888 107.031 345.775 106.795C345.422 106.058 345.098 105.298 344.816 104.539C344.725 104.296 344.495 104.137 344.234 104.137H334.416V86.3609H344.119C344.381 86.3609 344.614 86.1969 344.703 85.952C345.026 85.0511 345.397 84.1659 345.806 83.3188C345.919 83.0829 345.872 82.8021 345.686 82.6179L338.849 75.8036L351.266 63.5119L358.117 70.3396C358.303 70.5238 358.583 70.5733 358.821 70.4609C359.64 70.0767 360.488 69.7263 361.345 69.4252C361.591 69.3376 361.757 69.1062 361.757 68.8455V59.2072H379.288V68.8298C379.288 69.0904 379.453 69.3218 379.702 69.4095C380.758 69.7802 381.803 70.2228 382.807 70.7216C383.042 70.8384 383.325 70.7957 383.513 70.616L390.511 63.9365L402.654 76.4956L395.67 83.1616C395.48 83.3413 395.426 83.6221 395.534 83.8603C395.846 84.5478 396.138 85.2667 396.4 86.0014C396.489 86.2463 396.722 86.4103 396.984 86.4103H406.671V103.825H396.968C396.706 103.825 396.473 103.989 396.385 104.233C395.984 105.352 395.507 106.449 394.971 107.491C394.851 107.723 394.892 108.006 395.073 108.194L401.962 115.4L389.36 127.754L382.16 120.226C381.982 120.039 381.703 119.981 381.464 120.084C380.9 120.327 380.321 120.554 379.742 120.758C379.496 120.846 379.331 121.077 379.331 121.338V131.866V131.868Z" fill="#5599FF"/>
<path d="M370.542 112.139C379.756 112.139 387.252 104.693 387.252 95.5401C387.252 86.387 379.756 78.9414 370.542 78.9414C364.415 78.9414 358.787 82.2643 355.856 87.6159C355.693 87.9148 355.804 88.2877 356.105 88.4495C356.406 88.6112 356.781 88.5011 356.944 88.2023C359.658 83.2483 364.869 80.1703 370.542 80.1703C379.073 80.1703 386.015 87.0655 386.015 95.5401C386.015 104.015 379.073 110.91 370.542 110.91C369.336 110.91 368.135 110.773 366.975 110.499C366.642 110.42 366.308 110.624 366.231 110.957C366.152 111.287 366.357 111.62 366.692 111.696C367.948 111.99 369.244 112.139 370.544 112.139H370.542Z" fill="#5599FF"/>
<path d="M21.23 219.922H63.5098V234.305H21.23V219.922Z" fill="#9D9FB5"/>
<path d="M6.41363 219.922H69.6309V240.794H6.41363V219.922Z" fill="#9D9FB5"/>
<path d="M100.302 242.449H1.52063C0.819473 242.449 0.251793 241.885 0.251793 241.188C0.251793 240.492 0.819473 239.928 1.52063 239.928H100.302C105.572 239.928 109.861 235.668 109.861 230.433C109.861 225.199 105.572 220.939 100.302 220.939H1.52063C0.819473 220.939 0.251793 220.375 0.251793 219.678C0.251793 218.982 0.819473 218.418 1.52063 218.418H100.302C106.972 218.418 112.398 223.808 112.398 230.433C112.398 237.059 106.972 242.449 100.302 242.449Z" fill="#0A0E29"/>
<path d="M111.383 230.43C111.383 236.629 106.323 241.657 100.081 241.657H45.4311V241.376C50.4568 240.237 54.2068 235.768 54.2068 230.43C54.2068 227.329 52.9425 224.523 50.8979 222.49C49.4209 221.025 47.5391 219.963 45.4311 219.484V219.203H100.081C103.202 219.203 106.027 220.459 108.072 222.49C110.116 224.523 111.383 227.329 111.383 230.43Z" fill="#0A0E29"/>
<path d="M23.519 203.379H63.6094V217.762H23.519V203.379Z" fill="#9D9FB5"/>
<path d="M54.8804 205.099C56.2646 206.499 57.1196 208.435 57.1196 210.57C57.1196 213.857 55.0953 216.663 52.2386 217.784V218.307H97.3864C101.609 218.307 105.031 214.843 105.031 210.57C105.031 208.433 104.176 206.499 102.792 205.099C101.408 203.699 99.4989 202.832 97.3864 202.832H52.2386V203.356C53.2383 203.746 54.1363 204.346 54.8804 205.099Z" fill="#5599FF"/>
<path d="M19.3026 219.133C18.6376 219.133 18.0948 218.599 18.0925 217.936C18.088 217.271 18.6286 216.729 19.2981 216.727L97.796 216.325C99.4064 216.316 100.917 215.687 102.05 214.55C103.184 213.413 103.803 211.906 103.794 210.306C103.776 207.014 101.076 204.348 97.7666 204.348H97.7349L19.237 204.75C19.237 204.75 19.2325 204.75 19.2302 204.75C18.5652 204.75 18.0224 204.215 18.0201 203.552C18.0156 202.887 18.5562 202.346 19.2257 202.344L97.7236 201.941C97.7372 201.941 97.753 201.941 97.7666 201.941C102.406 201.941 106.194 205.68 106.217 210.292C106.228 212.535 105.359 214.647 103.772 216.242C102.184 217.835 100.067 218.72 97.8096 218.731L19.3117 219.133C19.3117 219.133 19.3071 219.133 19.3049 219.133H19.3026Z" fill="#5599FF"/>
<path d="M38.5996 236.615L35.5394 233.479L32.4815 236.615V227.109H38.5996V236.615Z" fill="#5599FF"/>
<path d="M75.9235 165.227H32.2505V181.142C32.2505 193.113 42.035 202.834 54.0881 202.834C66.139 202.834 75.9258 193.115 75.9258 181.142V165.227H75.9235Z" fill="#5599FF"/>
<path d="M39.5444 171.591C39.8474 171.591 40.0917 171.348 40.0917 171.047V165.509H60.812C61.1151 165.509 61.3594 165.267 61.3594 164.966C61.3594 164.665 61.1151 164.422 60.812 164.422H39.5444C39.2413 164.422 38.997 164.665 38.997 164.966V171.047C38.997 171.348 39.2413 171.591 39.5444 171.591Z" fill="#0A0E29"/>
<path d="M61.3825 202.691C73.7252 202.691 83.7676 192.715 83.7676 180.455V164.962C83.7676 164.661 83.5233 164.418 83.2202 164.418H70.1651C69.862 164.418 69.6178 164.661 69.6178 164.962C69.6178 165.263 69.862 165.505 70.1651 165.505H82.6728V180.455C82.6728 192.115 73.1235 201.601 61.3848 201.601C53.5703 201.601 46.3982 197.359 42.6639 190.534C42.5192 190.269 42.1867 190.172 41.9221 190.316C41.6574 190.46 41.5579 190.79 41.7027 191.053C45.6269 198.231 53.1699 202.688 61.3848 202.688L61.3825 202.691Z" fill="#0A0E29"/>
<path d="M34.6727 188.716H38.6421C38.9452 188.716 39.1895 188.473 39.1895 188.172C39.1895 187.871 38.9452 187.628 38.6421 187.628H34.6727C30.0088 187.628 25.6729 184.939 23.6283 180.776C22.943 179.385 23.0289 177.77 23.8545 176.455C24.68 175.141 26.105 174.357 27.6633 174.357H34.4284C34.7314 174.357 34.9757 174.114 34.9757 173.813C34.9757 173.512 34.7314 173.27 34.4284 173.27H27.6633C25.725 173.27 23.954 174.245 22.9249 175.878C21.898 177.511 21.7917 179.52 22.6444 181.252C24.8746 185.786 29.5949 188.713 34.6749 188.713L34.6727 188.716Z" fill="#0A0E29"/>
<path d="M72.6848 153.863C72.9969 153.863 73.2502 153.611 73.2502 153.301C73.2502 151.142 71.1468 150.097 69.2921 149.176C67.5777 148.325 65.9582 147.52 65.9582 146.055C65.9582 144.59 67.5777 143.786 69.2921 142.935C71.149 142.014 73.2502 140.969 73.2502 138.81C73.2502 136.651 71.1468 135.608 69.2921 134.685C67.5777 133.833 65.9582 133.029 65.9582 131.566C65.9582 130.104 67.5777 129.297 69.2921 128.446C71.1468 127.524 73.2502 126.48 73.2502 124.321C73.2502 122.162 71.1468 121.119 69.2921 120.196C67.5777 119.344 65.9582 118.54 65.9582 117.077C65.9582 116.767 65.7049 116.516 65.3928 116.516C65.0806 116.516 64.8273 116.767 64.8273 117.077C64.8273 119.236 66.9308 120.279 68.7855 121.202C70.4999 122.054 72.1193 122.858 72.1193 124.321C72.1193 125.783 70.4999 126.588 68.7855 127.439C66.9285 128.36 64.8273 129.405 64.8273 131.564C64.8273 133.723 66.9308 134.766 68.7855 135.689C70.4999 136.541 72.1193 137.345 72.1193 138.807C72.1193 140.27 70.4999 141.077 68.7855 141.928C66.9285 142.849 64.8273 143.894 64.8273 146.053C64.8273 148.212 66.9308 149.257 68.7855 150.178C70.4999 151.03 72.1193 151.834 72.1193 153.299C72.1193 153.609 72.3727 153.86 72.6848 153.86V153.863Z" fill="#0A0E29"/>
<path d="M50.8877 157.89C51.1998 157.89 51.4531 157.639 51.4531 157.329C51.4531 155.17 49.3497 154.125 47.495 153.204C45.7805 152.352 44.1611 151.548 44.1611 150.083C44.1611 148.618 45.7805 147.814 47.495 146.962C49.3519 146.041 51.4531 144.997 51.4531 142.838C51.4531 140.678 49.3497 139.636 47.495 138.713C45.7805 137.861 44.1611 137.057 44.1611 135.594C44.1611 134.132 45.7805 133.327 47.495 132.476C49.3519 131.555 51.4531 130.51 51.4531 128.351C51.4531 128.041 51.1998 127.789 50.8877 127.789C50.5755 127.789 50.3222 128.041 50.3222 128.351C50.3222 129.816 48.7028 130.618 46.9883 131.469C45.1314 132.39 43.0302 133.435 43.0302 135.594C43.0302 137.753 45.1337 138.796 46.9883 139.719C48.7028 140.571 50.3222 141.375 50.3222 142.838C50.3222 144.3 48.7028 145.107 46.9883 145.958C45.1314 146.879 43.0302 147.924 43.0302 150.083C43.0302 152.242 45.1337 153.287 46.9883 154.208C48.7028 155.06 50.3222 155.864 50.3222 157.329C50.3222 157.639 50.5755 157.89 50.8877 157.89Z" fill="#0A0E29"/>
<path d="M129.561 54.0808L348.86 34.703C352.617 34.3705 355.935 37.1272 356.27 40.8612L369.538 189.027C369.888 192.927 366.989 196.369 363.062 196.715L144.369 216.041C140.443 216.387 136.977 213.507 136.629 209.609L123.359 61.441C123.024 57.7093 125.8 54.4133 129.561 54.0808ZM146.233 206.017L359.45 187.176L346.696 44.7502L133.478 63.5911L146.233 206.017Z" fill="#121533"/>
<path d="M346.723 44.7463L359.469 187.172L146.251 206L133.505 63.574L346.723 44.7463Z" fill="#F8F8F8"/>
<path d="M235.124 241.711L278.297 237.896C280.495 237.703 282.234 237.072 282.182 236.49L279.283 204.117L228.148 208.635L231.048 241.008C231.1 241.59 232.925 241.905 235.124 241.711Z" fill="#121533"/>
<path d="M214.638 243.033L254.091 241.746L299.094 237.769C298.517 231.33 292.792 226.57 286.308 227.145L225.325 232.535C219.594 233.042 215.181 237.542 214.638 243.033Z" fill="#121533"/>
<path d="M145.159 243.588H302.388C302.7 243.588 302.953 243.337 302.953 243.027C302.953 242.716 302.7 242.465 302.388 242.465H145.159C144.847 242.465 144.593 242.716 144.593 243.027C144.593 243.337 144.847 243.588 145.159 243.588Z" fill="#0A0E29"/>
<path d="M313.913 243.588H388.921C389.233 243.588 389.486 243.337 389.486 243.027C389.486 242.716 389.233 242.465 388.921 242.465H313.913C313.601 242.465 313.347 242.716 313.347 243.027C313.347 243.337 313.601 243.588 313.913 243.588Z" fill="#0A0E29"/>
<path d="M-17.3747 243.569H156.329C156.641 243.569 156.895 243.317 156.895 243.007C156.895 242.697 156.641 242.445 156.329 242.445H-17.3747C-17.6868 242.445 -17.9401 242.697 -17.9401 243.007C-17.9401 243.317 -17.6868 243.569 -17.3747 243.569Z" fill="#0A0E29"/>
<path d="M246.906 186.165C214.453 186.165 188.145 160.032 188.145 127.795C188.145 95.5587 214.453 69.4258 246.906 69.4258C279.36 69.4258 305.668 95.5587 305.668 127.795C305.668 160.032 279.36 186.165 246.906 186.165Z" fill="#9D9FB5"/>
<path d="M247.019 187.34C258.079 187.34 268.945 184.28 278.569 178.331C292.158 169.931 301.639 156.776 305.267 141.29C308.895 125.805 306.238 109.842 297.778 96.3441C289.322 82.8459 276.079 73.4277 260.488 69.8218C244.9 66.218 228.83 68.8579 215.241 77.2606C201.652 85.6611 192.171 98.8155 188.54 114.302C184.913 129.786 187.57 145.749 196.029 159.247C204.486 172.746 217.729 182.164 233.32 185.77C237.868 186.821 242.462 187.343 247.017 187.343L247.019 187.34ZM246.902 70.5744C251.215 70.5744 255.587 71.0597 259.963 72.0707C274.948 75.5351 287.677 84.5894 295.808 97.5641C303.937 110.539 306.493 125.882 303.005 140.768C299.518 155.653 290.403 168.297 277.341 176.374C264.279 184.449 248.833 186.988 233.849 183.523C202.914 176.372 183.607 145.554 190.807 114.826C196.988 88.4447 220.735 70.5744 246.904 70.5744H246.902Z" fill="#9D9FB5"/>
<path d="M233.587 186.392C234.387 186.392 235.109 185.846 235.299 185.039L261.94 71.34C262.16 70.4009 261.572 69.4595 260.626 69.2416C259.679 69.0214 258.733 69.6078 258.514 70.547L231.872 184.246C231.653 185.185 232.241 186.127 233.186 186.345C233.32 186.376 233.455 186.389 233.587 186.389V186.392Z" fill="#F8F8F8"/>
<path d="M304.138 142.778C304.939 142.778 305.661 142.232 305.851 141.425C306.07 140.486 305.482 139.545 304.536 139.327L190.074 112.863C189.126 112.643 188.181 113.229 187.961 114.168C187.742 115.107 188.33 116.049 189.275 116.266L303.738 142.73C303.872 142.762 304.007 142.778 304.138 142.778Z" fill="#F8F8F8"/>
<path d="M247.58 188.709C248.024 188.709 248.467 188.543 248.809 188.213C257.087 180.185 263.945 171.758 269.192 163.169C274.485 154.505 278.309 145.393 280.562 136.087C282.822 126.752 283.57 116.925 282.788 106.882C282.005 96.8614 279.671 86.3041 275.851 75.5042C275.529 74.5943 274.525 74.1158 273.607 74.4348C272.691 74.7538 272.209 75.7514 272.53 76.6635C287.359 118.578 278.793 154.247 246.35 185.712C245.656 186.386 245.642 187.494 246.321 188.183C246.664 188.534 247.121 188.709 247.58 188.709Z" fill="#F8F8F8"/>
<path d="M296.094 111.707C298.386 111.707 300.654 111.66 302.896 111.565C303.866 111.525 304.619 110.709 304.579 109.746C304.538 108.782 303.721 108.036 302.746 108.074C276.313 109.184 237.03 103.511 206.064 84.259C205.24 83.7467 204.155 83.9939 203.639 84.8139C203.123 85.6317 203.372 86.7101 204.198 87.2224C217.938 95.7644 234.947 102.513 253.387 106.737C267.682 110.013 282.307 111.707 296.094 111.707Z" fill="#F8F8F8"/>
<path d="M233.587 186.392C234.387 186.392 235.109 185.846 235.299 185.039L261.94 71.34C262.16 70.4009 261.572 69.4595 260.626 69.2416C259.679 69.0214 258.733 69.6078 258.514 70.547L231.872 184.246C231.653 185.185 232.241 186.127 233.186 186.345C233.32 186.376 233.455 186.389 233.587 186.389V186.392Z" fill="#F8F8F8"/>
<path d="M220.001 182.333C220.195 182.333 220.392 182.302 220.584 182.235C221.5 181.916 221.982 180.918 221.661 180.006C206.579 137.372 214.751 101.612 246.642 70.6811C247.337 70.0071 247.35 68.8995 246.672 68.2097C245.993 67.52 244.88 67.5065 244.184 68.1805C235.935 76.1788 229.136 84.6264 223.977 93.2852C218.818 101.944 215.131 111.09 213.021 120.473C210.922 129.801 210.315 139.657 211.216 149.763C212.107 159.759 214.504 170.325 218.338 181.165C218.591 181.884 219.272 182.333 219.998 182.333H220.001Z" fill="#F8F8F8"/>
<path d="M288.147 169.982C288.767 169.982 289.366 169.656 289.687 169.081C290.158 168.236 289.852 167.173 289.002 166.704C273.954 158.416 258.045 152.307 241.712 148.546C225.488 144.81 208.401 143.289 190.917 144.023C189.947 144.064 189.193 144.879 189.234 145.843C189.275 146.807 190.096 147.555 191.066 147.515C225.491 146.068 257.871 153.554 287.294 169.759C287.566 169.908 287.858 169.98 288.147 169.98V169.982Z" fill="#F8F8F8"/>
<path d="M118.181 102.545H143.805C144.117 102.545 144.371 102.294 144.371 101.983V87.1642C144.941 86.9553 145.508 86.7328 146.069 86.4992L156.22 97.1149C156.324 97.2249 156.469 97.2879 156.62 97.2901C156.623 97.2901 156.627 97.2901 156.629 97.2901C156.779 97.2901 156.921 97.2317 157.028 97.1283L175.439 79.0805C175.658 78.8649 175.665 78.5166 175.452 78.2942L165.749 68.1458C166.378 66.8921 166.943 65.5891 167.436 64.259H181.134C181.446 64.259 181.699 64.0074 181.699 63.6973V38.2444C181.699 37.9343 181.446 37.6827 181.134 37.6827H167.461C167.174 36.9008 166.862 36.1302 166.532 35.3843L176.391 25.9751C176.617 25.7594 176.624 25.4044 176.407 25.182L158.654 6.82642C158.55 6.71858 158.407 6.65792 158.258 6.65342C158.104 6.64893 157.964 6.70734 157.855 6.81069L147.976 16.2379C146.784 15.6605 145.556 15.1415 144.312 14.6899V1.10855C144.312 0.798506 144.058 0.546875 143.746 0.546875H118.122C117.81 0.546875 117.557 0.798506 117.557 1.10855V14.7146C116.598 15.0651 115.646 15.456 114.721 15.8807L105.051 6.24227C104.945 6.13668 104.803 6.07827 104.651 6.07602C104.502 6.07602 104.357 6.13444 104.253 6.24003L86.1021 24.2092C85.9958 24.3148 85.937 24.4563 85.9347 24.6069C85.9347 24.7551 85.9935 24.8989 86.0998 25.0045L95.751 34.6249C95.2941 35.5978 94.8734 36.602 94.4957 37.622H80.7982C80.4861 37.622 80.2327 37.8737 80.2327 38.1837V64.1309C80.2327 64.441 80.4861 64.6926 80.7982 64.6926H94.6562C94.9751 65.5239 95.328 66.3507 95.7057 67.1618L85.738 77.0113C85.5208 77.227 85.5163 77.5775 85.7289 77.7977L103.626 96.3667C103.731 96.4745 103.875 96.5375 104.029 96.5397C104.176 96.5419 104.328 96.4835 104.434 96.3757L114.863 86.0678C115.766 86.4767 116.688 86.8519 117.62 87.1912V101.988C117.62 102.298 117.874 102.55 118.186 102.55L118.181 102.545ZM143.24 101.422H118.747V86.7935C118.747 86.5553 118.595 86.3441 118.369 86.2633C117.22 85.8589 116.08 85.3938 114.976 84.8815C114.761 84.7804 114.506 84.8254 114.338 84.9916L104.038 95.1715L86.9232 77.4135L96.78 67.674C96.9497 67.5055 96.995 67.2494 96.8909 67.0337C96.4046 66.0227 95.9613 64.978 95.5723 63.931C95.4908 63.7108 95.2782 63.5648 95.043 63.5648H81.3591V38.7409H94.8869C95.1267 38.7409 95.3393 38.5926 95.4207 38.368C95.8641 37.13 96.3752 35.9123 96.9384 34.7463C97.0424 34.5306 96.9972 34.2744 96.8298 34.1059L87.2963 24.6046L104.647 7.42853L114.198 16.9478C114.368 17.1163 114.626 17.1613 114.841 17.0579C115.967 16.5277 117.134 16.0492 118.312 15.6313C118.539 15.5526 118.688 15.3392 118.688 15.1033V1.66573H143.181V15.0808C143.181 15.319 143.332 15.5302 143.559 15.611C145.013 16.1233 146.449 16.7299 147.829 17.4152C148.044 17.523 148.302 17.4826 148.473 17.3185L158.231 8.00819L175.199 25.555L165.46 34.8474C165.288 35.0114 165.238 35.2675 165.337 35.4832C165.769 36.429 166.17 37.4198 166.529 38.4286C166.609 38.6533 166.823 38.8038 167.063 38.8038H180.568V63.1334H167.041C166.801 63.1334 166.588 63.2839 166.507 63.5064C165.955 65.0454 165.301 66.5529 164.562 67.9863C164.453 68.1975 164.489 68.4559 164.654 68.6289L174.251 78.6649L156.645 95.9241L146.621 85.4387C146.458 85.268 146.205 85.2163 145.985 85.3107C145.21 85.6454 144.413 85.9577 143.62 86.2386C143.393 86.3172 143.244 86.5306 143.244 86.7688V101.42L143.24 101.422Z" fill="#5599FF"/>
<path d="M130.964 73.9281C143.39 73.9281 153.498 63.8875 153.498 51.5441C153.498 39.2007 143.39 29.1602 130.964 29.1602C118.537 29.1602 108.429 39.2007 108.429 51.5441C108.429 63.8875 118.537 73.9281 130.964 73.9281ZM130.964 30.2835C142.766 30.2835 152.367 39.8208 152.367 51.5441C152.367 63.2674 142.766 72.8047 130.964 72.8047C119.162 72.8047 109.56 63.2674 109.56 51.5441C109.56 39.8208 119.162 30.2835 130.964 30.2835Z" fill="#5599FF"/>
<path d="M277.455 149.424L312.664 125.755L311.366 117.629L270.552 106.137L272.241 116.613L294.986 124.407L275.781 138.93L277.455 149.424Z" fill="#3653F2"/>
<path d="M225.894 113.164L190.684 136.835L191.983 144.962L232.797 156.451L231.107 145.975L208.363 138.183L227.568 123.658L225.894 113.164Z" fill="#3653F2"/>
<path d="M258.334 160.011L270.154 158.151L244.983 99.1992L233.16 101.059L258.334 160.011Z" fill="#3653F2"/>
<path d="M280.704 143.093C280.813 143.093 280.919 143.061 281.012 142.998L316.221 119.327C316.397 119.208 316.488 118.999 316.454 118.792L315.158 110.666C315.124 110.457 314.972 110.286 314.767 110.228L306.468 107.891C306.179 107.808 305.875 107.977 305.792 108.266C305.71 108.556 305.878 108.855 306.17 108.938L314.131 111.18L315.318 118.622L281.111 141.619L279.623 132.291L298.568 117.963C298.728 117.842 298.81 117.642 298.776 117.444C298.744 117.247 298.604 117.083 298.414 117.015L275.979 109.329L274.477 100.017L297.654 106.541C297.946 106.624 298.246 106.456 298.33 106.166C298.412 105.876 298.244 105.577 297.952 105.494L273.95 98.7359C273.772 98.6843 273.577 98.7292 273.437 98.8528C273.297 98.9763 273.231 99.1628 273.26 99.3448L274.95 109.821C274.982 110.019 275.122 110.183 275.312 110.25L297.091 117.712L278.698 131.621C278.537 131.742 278.458 131.94 278.49 132.138L280.163 142.632C280.193 142.816 280.315 142.971 280.487 143.045C280.557 143.075 280.632 143.09 280.704 143.09V143.093Z" fill="#0A0E29"/>
<path d="M236.05 150.117C236.181 150.117 236.313 150.07 236.414 149.98C236.555 149.856 236.62 149.67 236.591 149.488L234.901 139.012C234.87 138.814 234.729 138.65 234.539 138.582L212.76 131.121L231.153 117.212C231.314 117.09 231.393 116.893 231.361 116.695L229.688 106.201C229.658 106.016 229.536 105.861 229.364 105.787C229.192 105.713 228.996 105.731 228.84 105.837L193.63 129.508C193.454 129.627 193.363 129.836 193.395 130.043L194.691 138.169C194.725 138.378 194.876 138.549 195.082 138.607L210.662 142.993C210.953 143.076 211.254 142.907 211.338 142.618C211.419 142.328 211.252 142.029 210.96 141.946L195.718 137.655L194.53 130.213L228.738 107.216L230.226 116.544L211.279 130.872C211.118 130.993 211.037 131.193 211.071 131.391C211.103 131.588 211.243 131.752 211.433 131.82L233.868 139.506L235.369 148.818L217.854 143.887C217.562 143.806 217.261 143.972 217.178 144.262C217.096 144.552 217.264 144.851 217.555 144.934L235.896 150.097C235.946 150.11 235.996 150.117 236.046 150.117H236.05Z" fill="#0A0E29"/>
<path d="M261.583 153.674C261.612 153.674 261.639 153.674 261.669 153.667L273.491 151.807C273.659 151.78 273.803 151.679 273.885 151.533C273.966 151.387 273.975 151.211 273.91 151.056L258.984 116.104C258.866 115.828 258.545 115.7 258.267 115.817C257.989 115.933 257.858 116.253 257.978 116.529L272.63 150.841L261.922 152.526L257.638 142.492C257.521 142.215 257.2 142.085 256.921 142.204C256.643 142.321 256.512 142.64 256.632 142.916L261.083 153.341C261.169 153.546 261.37 153.674 261.587 153.674H261.583Z" fill="#0A0E29"/>
<path d="M253.234 134.121C253.306 134.121 253.378 134.107 253.446 134.078C253.725 133.961 253.856 133.642 253.736 133.366L237.189 94.6101L247.896 92.9251L254.525 108.45C254.643 108.726 254.964 108.857 255.242 108.737C255.52 108.621 255.652 108.302 255.532 108.025L248.735 92.1096C248.638 91.8804 248.393 91.7456 248.145 91.7838L236.322 93.6441C236.155 93.671 236.01 93.7721 235.929 93.9182C235.847 94.0642 235.838 94.2394 235.904 94.3945L252.725 133.79C252.813 133.997 253.017 134.123 253.229 134.123L253.234 134.121Z" fill="#0A0E29"/>
<path d="M223.391 243.564C237.003 243.564 248.074 232.564 248.074 219.046C248.074 205.527 237 194.527 223.391 194.527C209.782 194.527 198.708 205.527 198.708 219.046C198.708 232.564 209.782 243.564 223.391 243.564ZM223.391 195.648C236.378 195.648 246.943 206.143 246.943 219.043C246.943 231.944 236.378 242.438 223.391 242.438C210.404 242.438 199.839 231.944 199.839 219.043C199.839 206.143 210.404 195.648 223.391 195.648Z" fill="#0A0E29"/>
<path d="M155.835 243.564C169.446 243.564 180.518 232.564 180.518 219.046C180.518 205.527 169.444 194.527 155.835 194.527C142.225 194.527 131.152 205.527 131.152 219.046C131.152 232.564 142.225 243.564 155.835 243.564ZM155.835 195.648C168.822 195.648 179.387 206.143 179.387 219.043C179.387 231.944 168.822 242.438 155.835 242.438C142.847 242.438 132.283 231.944 132.283 219.043C132.283 206.143 142.847 195.648 155.835 195.648Z" fill="#0A0E29"/>
<path d="M178.884 212.535C179.196 212.535 179.449 212.283 179.449 211.973C179.449 211.42 179.863 210.906 180.679 210.436C184.402 208.302 194.662 208.302 198.385 210.436C199.201 210.903 199.615 211.42 199.615 211.973C199.615 212.283 199.869 212.535 200.181 212.535C200.493 212.535 200.746 212.283 200.746 211.973C200.746 211.299 200.434 210.315 198.95 209.463C194.902 207.142 184.163 207.142 180.114 209.463C178.63 210.315 178.318 211.297 178.318 211.973C178.318 212.283 178.571 212.535 178.884 212.535Z" fill="#0A0E29"/>
<path d="M247.51 220.479H253.083C253.395 220.479 253.648 220.227 253.648 219.917C253.648 219.607 253.395 219.355 253.083 219.355H247.51C247.198 219.355 246.944 219.607 246.944 219.917C246.944 220.227 247.198 220.479 247.51 220.479Z" fill="#0A0E29"/>
<path d="M126.147 220.479H131.718C132.03 220.479 132.283 220.227 132.283 219.917C132.283 219.607 132.03 219.355 131.718 219.355H126.147C125.835 219.355 125.581 219.607 125.581 219.917C125.581 220.227 125.835 220.479 126.147 220.479Z" fill="#0A0E29"/>
<path d="M332.54 70.9437C330.167 70.9437 328.243 69.0326 328.243 66.675C328.243 64.3174 330.167 62.4062 332.54 62.4062C334.914 62.4062 336.838 64.3174 336.838 66.675C336.838 69.0326 334.914 70.9437 332.54 70.9437Z" fill="#9D9FB5"/>
<path d="M315.914 70.9437C313.54 70.9437 311.616 69.0326 311.616 66.675C311.616 64.3174 313.54 62.4062 315.914 62.4062C318.287 62.4062 320.211 64.3174 320.211 66.675C320.211 69.0326 318.287 70.9437 315.914 70.9437Z" fill="#9D9FB5"/>
<path d="M299.287 70.9437C296.913 70.9437 294.989 69.0326 294.989 66.675C294.989 64.3174 296.913 62.4062 299.287 62.4062C301.66 62.4062 303.584 64.3174 303.584 66.675C303.584 69.0326 301.66 70.9437 299.287 70.9437Z" fill="#9D9FB5"/>
</g>
<defs>
<clipPath id="clip0_3539_25220">
<rect width="408" height="244" fill="white" transform="matrix(-1 0 0 1 408 0)"/>
</clipPath>
</defs>
</svg>
