<svg viewBox="0 0 388 208" fill="none" xmlns="http://www.w3.org/2000/svg">
<path d="M387.573 192.399H366.942C366.706 192.399 366.516 192.187 366.516 191.924C366.516 191.661 366.706 191.449 366.942 191.449H387.573C387.809 191.449 387.999 191.661 387.999 191.924C387.999 192.187 387.809 192.399 387.573 192.399Z" fill="#F8F8F8"/>
<path d="M372.918 192.399H276.615C276.349 192.399 276.135 192.187 276.135 191.924C276.135 191.661 276.349 191.449 276.615 191.449H372.918C373.184 191.449 373.399 191.661 373.399 191.924C373.399 192.187 373.184 192.399 372.918 192.399Z" fill="#F8F8F8"/>
<path d="M302.78 26.8051L110.342 9.87921C107.043 9.58877 104.133 11.9967 103.84 15.2582L92.1948 144.676C91.8892 148.082 94.4317 151.089 97.8772 151.391L289.785 168.27C293.231 168.572 296.272 166.058 296.577 162.651L308.222 33.2339C308.516 29.9724 306.08 27.0955 302.78 26.8051ZM288.15 159.515L101.047 143.059L112.239 18.6551L299.342 35.112L288.15 159.515Z" fill="#9D9FB5"/>
<path d="M210.148 190.695L172.262 187.362C170.333 187.194 168.807 186.642 168.853 186.134L171.397 157.857L216.269 161.804L213.724 190.08C213.679 190.589 212.077 190.863 210.148 190.695Z" fill="#9D9FB5"/>
<path d="M228.125 191.847L193.505 190.723L154.014 187.249C154.52 181.625 159.543 177.466 165.234 177.969L218.747 182.677C223.777 183.12 227.649 187.051 228.125 191.847Z" fill="#9D9FB5"/>
<path d="M293.173 73.163C292.907 73.163 292.693 72.951 292.693 72.6881V24.9268C292.693 21.9223 290.218 19.4772 287.177 19.4772H241.031C240.765 19.4772 240.551 19.2652 240.551 19.0022C240.551 18.7393 240.765 18.5273 241.031 18.5273H287.177C290.75 18.5273 293.653 21.3984 293.653 24.9287V72.69C293.653 72.953 293.439 73.1649 293.173 73.1649V73.163Z" fill="#F8F8F8"/>
<path d="M293.174 88.8077C292.908 88.8077 292.693 88.5958 292.693 88.3328V81.2112C292.693 80.9483 292.908 80.7363 293.174 80.7363C293.44 80.7363 293.654 80.9483 293.654 81.2112V88.3328C293.654 88.5958 293.44 88.8077 293.174 88.8077Z" fill="#F8F8F8"/>
<path d="M286.909 161.52H260.056C259.791 161.52 259.576 161.308 259.576 161.045C259.576 160.782 259.791 160.57 260.056 160.57H286.909C290.096 160.57 292.69 158.005 292.69 154.854V97.5452C292.69 97.2823 292.905 97.0703 293.171 97.0703C293.436 97.0703 293.651 97.2823 293.651 97.5452V154.854C293.651 158.529 290.626 161.52 286.909 161.52Z" fill="#F8F8F8"/>
<path d="M213.101 182.092C212.835 182.092 212.621 181.88 212.621 181.617V161.047C212.621 160.784 212.835 160.572 213.101 160.572H241.607C241.873 160.572 242.087 160.784 242.087 161.047C242.087 161.31 241.873 161.522 241.607 161.522H213.582V181.617C213.582 181.88 213.367 182.092 213.101 182.092Z" fill="#F8F8F8"/>
<path d="M227.783 192.319H174.66C174.394 192.319 174.18 192.107 174.18 191.844C174.18 191.581 174.394 191.369 174.66 191.369H227.29C227.038 186.212 222.715 182.09 217.438 182.09H213.099C212.833 182.09 212.619 181.879 212.619 181.616C212.619 181.353 212.833 181.141 213.099 181.141H217.438C223.406 181.141 228.263 185.943 228.263 191.844C228.263 192.107 228.049 192.319 227.783 192.319Z" fill="#F8F8F8"/>
<path d="M153.371 192.318C153.105 192.318 152.891 192.106 152.891 191.843C152.891 185.942 157.747 181.14 163.716 181.14H167.574V165.297C167.574 165.034 167.788 164.822 168.054 164.822C168.32 164.822 168.535 165.034 168.535 165.297V181.615C168.535 181.878 168.32 182.09 168.054 182.09H163.716C158.277 182.09 153.851 186.464 153.851 191.843C153.851 192.106 153.637 192.318 153.371 192.318Z" fill="#F8F8F8"/>
<path d="M87.9823 100.878C87.7163 100.878 87.502 100.666 87.502 100.403V49.1526C87.502 48.8897 87.7163 48.6777 87.9823 48.6777C88.2482 48.6777 88.4626 48.8897 88.4626 49.1526V100.403C88.4626 100.666 88.2482 100.878 87.9823 100.878Z" fill="#F8F8F8"/>
<path d="M87.9823 38.9561C87.7163 38.9561 87.502 38.7442 87.502 38.4812V24.9268C87.502 21.3984 90.4077 18.5254 93.9763 18.5254H225.462C225.728 18.5254 225.942 18.7373 225.942 19.0003C225.942 19.2633 225.728 19.4752 225.462 19.4752H93.9763C90.9356 19.4752 88.4626 21.9204 88.4626 24.9248V38.4792C88.4626 38.7422 88.2482 38.9542 87.9823 38.9542V38.9561Z" fill="#F8F8F8"/>
<path d="M65.7327 192.321H0.550631C0.284671 192.321 0.0703125 192.109 0.0703125 191.846C0.0703125 191.583 0.284671 191.371 0.550631 191.371H65.7327C65.9986 191.371 66.213 191.583 66.213 191.846C66.213 192.109 65.9986 192.321 65.7327 192.321Z" fill="#F8F8F8"/>
<path d="M146.693 192.321H75.1932C74.9272 192.321 74.7129 192.109 74.7129 191.846C74.7129 191.583 74.9272 191.371 75.1932 191.371H146.693C146.959 191.371 147.173 191.583 147.173 191.846C147.173 192.109 146.959 192.321 146.693 192.321Z" fill="#F8F8F8"/>
<path d="M256.68 191.359C254.607 191.359 252.775 189.881 252.42 187.793C252.023 185.464 253.611 183.258 255.965 182.866L263.938 181.537C266.294 181.143 268.525 182.715 268.922 185.042C269.319 187.371 267.731 189.577 265.377 189.97L257.404 191.298C257.16 191.339 256.918 191.359 256.68 191.359Z" fill="#3653F2"/>
<path d="M251.168 192.279C249.096 192.279 247.266 190.801 246.908 188.713C246.512 186.383 248.099 184.178 250.453 183.785L255.967 182.867C258.323 182.474 260.554 184.044 260.951 186.372C261.348 188.701 259.76 190.907 257.406 191.299L251.892 192.218C251.648 192.259 251.406 192.279 251.168 192.279Z" fill="#F8F8F8"/>
<path d="M157.469 207.901C155.396 207.901 153.565 206.423 153.209 204.335C152.812 202.006 154.4 199.8 156.754 199.408L250.451 183.783C252.803 183.39 255.038 184.958 255.435 187.288C255.832 189.617 254.244 191.823 251.89 192.215L158.193 207.84C157.949 207.881 157.707 207.901 157.469 207.901Z" fill="#3653F2"/>
<path d="M151.804 206.753C150.744 206.753 149.809 205.998 149.627 204.93C149.424 203.741 150.234 202.613 151.439 202.412L155.063 201.808C156.268 201.608 157.407 202.409 157.609 203.6C157.812 204.789 157.002 205.917 155.797 206.117L152.173 206.722C152.048 206.743 151.925 206.753 151.802 206.753H151.804Z" fill="#F8F8F8"/>
<path d="M67.2972 86.1575C65.8444 84.046 67.5473 82.0345 69.4964 80.9925C71.6955 79.815 74.4901 79.921 76.5046 81.436C78.3822 82.8469 79.2515 85.2529 78.3524 87.4547C77.4692 89.6153 75.3257 91.0184 73.5652 92.4314C70.9671 94.5155 69.157 97.3963 71.0624 100.607C72.2155 102.55 75.278 100.789 74.1209 98.8387C73.3488 97.5396 74.1566 96.5446 75.1768 95.6458C76.2486 94.7019 77.4255 93.8816 78.4953 92.9338C80.8017 90.8909 82.5661 88.0395 82.2267 84.8682C81.8615 81.4615 79.5036 78.6513 76.328 77.3777C73.2615 76.1492 69.6016 76.6123 66.8844 78.4649C63.7584 80.5961 61.8967 84.517 64.2407 87.9218C65.5149 89.7743 68.5854 88.0238 67.2992 86.1536L67.2972 86.1575Z" fill="#9D9FB5"/>
<path d="M72.3149 106.896C72.4499 107.247 72.6583 107.586 72.9361 107.898C73.4224 108.444 74.0814 108.897 74.8296 109.003C78.041 109.456 77.519 104.586 75.2087 103.707C74.4049 103.4 73.5395 103.616 72.956 104.154C72.1283 104.917 71.9497 105.946 72.3149 106.896Z" fill="#9D9FB5"/>
<path d="M63.0999 109.997C63.5922 108.469 63.0761 105.945 60.9941 106.188C59.0609 106.414 58.0209 109.148 58.9359 110.716C59.9402 112.437 62.5482 111.707 63.0999 109.997Z" fill="#9D9FB5"/>
<path d="M59.3978 103.872C58.5563 104.035 57.7306 103.525 57.5103 102.707L52.1772 83.0294C51.7187 81.3339 52.8084 79.6089 54.549 79.2733C56.2917 78.9378 57.9569 80.1329 58.1752 81.8735L60.7058 102.09C60.811 102.932 60.2394 103.709 59.3978 103.872Z" fill="#9D9FB5"/>
<path d="M64.4944 89.4903C63.8969 89.4903 63.2836 89.2391 62.7795 88.7466C61.5728 87.5691 60.9337 86.0757 60.9297 84.4332C60.9257 82.3609 61.9499 80.11 63.6727 78.4125C66.1536 75.9673 69.889 74.8448 73.1877 75.5493C76.798 76.3225 79.6303 78.8383 80.583 82.1156C81.0593 83.7581 81.0077 85.489 80.4242 87.2551C80.3567 87.4631 80.1304 87.577 79.92 87.5083C79.7097 87.4396 79.5945 87.2178 79.664 87.0098C80.1959 85.3967 80.2455 83.8229 79.8148 82.3354C78.9455 79.3387 76.3415 77.0349 73.021 76.3245C69.9823 75.6749 66.5347 76.713 64.2403 78.9737C62.6664 80.526 61.7276 82.565 61.7316 84.4312C61.7355 85.8795 62.2774 87.1433 63.3432 88.1834C63.8473 88.6759 64.6472 88.9369 65.3002 88.411C65.588 88.1794 65.7884 87.7595 65.8083 87.3434C65.8182 87.1531 65.7924 86.794 65.5284 86.5349C65.3716 86.3819 65.3696 86.1307 65.5245 85.9756C65.6793 85.8206 65.9333 85.8186 66.0901 85.9717C66.4513 86.3249 66.6359 86.8254 66.6081 87.3807C66.5764 88.0205 66.2687 88.6504 65.8063 89.0233C65.4193 89.3353 64.9628 89.4884 64.4963 89.4884L64.4944 89.4903Z" fill="#F8F8F8"/>
<path d="M73.4464 100.657C72.8907 100.657 72.3211 100.441 71.8586 99.9249C70.4613 98.3667 70.0346 96.4083 70.6578 94.4105C71.1362 92.8759 72.1841 91.6671 73.1964 90.4955L73.5318 90.1089C74.9311 88.4997 76.378 86.8375 76.5606 84.7299C76.7273 82.8028 75.3995 80.8797 73.3333 80.0535C71.2215 79.2096 68.7663 79.6747 66.9245 81.2682C66.4104 81.7137 65.9797 82.2278 65.682 82.7538C65.5748 82.9441 65.3307 83.0128 65.1382 82.9049C64.9456 82.7989 64.8762 82.5575 64.9853 82.3672C65.3267 81.7627 65.817 81.1779 66.3985 80.6716C68.4686 78.8799 71.2394 78.3619 73.635 79.3176C76.0247 80.2733 77.5569 82.5261 77.3604 84.7947C77.156 87.1574 75.6237 88.9177 74.1411 90.6211L73.8057 91.0057C72.8451 92.1145 71.8527 93.2625 71.424 94.6382C70.8881 96.3612 71.2552 98.0508 72.46 99.3951C73.0912 100.1 73.9466 99.9249 74.4726 99.4637C74.9132 99.0771 75.2149 98.3864 74.6095 97.7093C74.2304 97.2874 73.8335 96.7733 73.9089 96.0118C73.9843 95.2386 74.421 94.5734 74.8814 93.967C75.3439 93.3587 75.852 92.7778 76.3442 92.2146C76.7809 91.7161 77.2314 91.2 77.6423 90.6721C77.7772 90.4994 78.0293 90.4661 78.204 90.6015C78.3786 90.7349 78.4124 90.9841 78.2754 91.1568C77.8507 91.7004 77.3922 92.2263 76.9476 92.7326C76.4653 93.2841 75.9651 93.8551 75.5205 94.4419C75.1295 94.9561 74.7604 95.5095 74.7048 96.0884C74.6691 96.4475 74.7961 96.7242 75.2089 97.1854C76.1378 98.2215 75.7547 99.4009 75.0045 100.056C74.5877 100.421 74.026 100.653 73.4504 100.653L73.4464 100.657Z" fill="#F8F8F8"/>
<path d="M77.3801 107.658C76.6438 107.658 75.8657 107.369 75.1731 106.836C74.8059 106.553 74.5062 106.225 74.2799 105.86C73.6289 104.812 73.6785 103.596 74.4089 102.607C74.9984 101.81 75.965 101.421 76.9316 101.596C78.6563 101.906 79.871 103.986 79.7638 105.568C79.6805 106.814 78.837 107.593 77.5072 107.654C77.4655 107.654 77.4218 107.656 77.3801 107.656V107.658ZM76.4771 102.348C75.9233 102.348 75.3973 102.61 75.054 103.076C74.5121 103.808 74.4784 104.671 74.9607 105.446C75.1373 105.729 75.3735 105.988 75.6633 106.212C76.2448 106.659 76.8859 106.892 77.4675 106.863C78.6305 106.81 78.9223 106.1 78.962 105.515C79.0454 104.292 78.0569 102.603 76.7847 102.375C76.6815 102.355 76.5763 102.348 76.4731 102.348H76.4771Z" fill="#F8F8F8"/>
<path d="M63.6882 112.963C63.0015 112.963 62.3644 112.679 61.896 112.143C61.1934 111.338 60.9651 110.037 61.3124 108.83C61.6241 107.749 62.3287 106.964 63.2456 106.678C64.0316 106.432 64.762 106.562 65.3594 107.052C66.32 107.841 66.6852 109.36 66.5523 110.455C66.4173 111.548 65.5757 112.51 64.4543 112.845C64.1963 112.922 63.9383 112.961 63.6882 112.961V112.963ZM63.9939 107.351C63.8331 107.351 63.6624 107.378 63.4858 107.433C62.8288 107.637 62.3167 108.226 62.0825 109.046C61.8106 109.99 61.9793 111.026 62.5033 111.625C63.0928 112.302 63.8331 112.206 64.2201 112.09C65.0299 111.847 65.6611 111.136 65.7564 110.361C65.8635 109.49 65.5519 108.242 64.8473 107.663C64.5933 107.455 64.3075 107.351 63.9939 107.351Z" fill="#F8F8F8"/>
<path d="M60.7562 105.581C59.996 105.581 59.2676 105.157 58.9203 104.447C58.825 104.25 58.9084 104.013 59.1069 103.919C59.3053 103.824 59.5455 103.907 59.6408 104.103C59.9206 104.676 60.6093 104.941 61.2067 104.704C61.8042 104.466 62.1197 103.807 61.9213 103.2L55.6136 83.8059C55.3854 83.1033 54.8872 82.544 54.2124 82.2301C53.5376 81.9161 52.7834 81.8945 52.0907 82.1673C51.398 82.442 50.8681 82.9719 50.5981 83.6587C50.3282 84.3475 50.358 85.0913 50.6835 85.7565L58.0053 100.749C58.1006 100.946 58.0172 101.183 57.8187 101.277C57.6203 101.373 57.3801 101.289 57.2848 101.093L49.963 86.0999C49.5462 85.2483 49.5065 84.2533 49.8538 83.3722C50.1992 82.4911 50.9077 81.7826 51.7969 81.4314C52.6861 81.0801 53.6904 81.1095 54.5577 81.5118C55.4231 81.9141 56.088 82.6618 56.3818 83.5625L62.6894 102.957C63.0149 103.958 62.4969 105.047 61.5104 105.438C61.2663 105.534 61.0122 105.581 60.7622 105.581H60.7562Z" fill="#F8F8F8"/>
<path d="M161.561 161.522H148.064C147.798 161.522 147.584 161.31 147.584 161.047C147.584 160.784 147.798 160.572 148.064 160.572H161.561C161.827 160.572 162.041 160.784 162.041 161.047C162.041 161.31 161.827 161.522 161.561 161.522Z" fill="#F8F8F8"/>
</svg>
